<svg width="22" height="20" viewBox="0 0 22 20" fill="none" xmlns="http://www.w3.org/2000/svg">
<path d="M1.42056 6.71942C2.11133 4.07055 4.22187 2.04402 6.87215 1.48483L7.37858 1.37798C9.76718 0.874007 12.2328 0.874007 14.6214 1.37798L15.1278 1.48483C17.7781 2.04402 19.8887 4.07055 20.5794 6.71943C21.1402 8.86967 21.1402 11.1303 20.5794 13.2806C19.8887 15.9295 17.7781 17.956 15.1278 18.5152L14.6214 18.622C12.2328 19.126 9.76718 19.126 7.37858 18.622L6.87215 18.5152C4.22187 17.956 2.11133 15.9295 1.42056 13.2806C0.859815 11.1303 0.859815 8.86967 1.42056 6.71942Z" stroke="white" stroke-width="1.5"/>
</svg>
