<svg width="20" height="20" viewBox="0 0 20 20" fill="none" xmlns="http://www.w3.org/2000/svg">
<path d="M1.29701 3.2338C1.52243 2.27279 2.27279 1.52243 3.2338 1.29701V1.29701C4.06663 1.10165 4.93337 1.10165 5.7662 1.29701V1.29701C6.72721 1.52243 7.47757 2.27279 7.70299 3.2338V3.2338C7.89835 4.06663 7.89835 4.93337 7.70299 5.7662V5.7662C7.47757 6.72721 6.72721 7.47757 5.7662 7.70299V7.70299C4.93337 7.89835 4.06663 7.89835 3.2338 7.70299V7.70299C2.27279 7.47757 1.52243 6.72721 1.29701 5.7662V5.7662C1.10166 4.93337 1.10166 4.06663 1.29701 3.2338V3.2338Z" stroke="white" stroke-width="1.5"/>
<path d="M1.29701 14.2338C1.52243 13.2728 2.27279 12.5224 3.2338 12.297V12.297C4.06663 12.1017 4.93337 12.1017 5.7662 12.297V12.297C6.72721 12.5224 7.47757 13.2728 7.70299 14.2338V14.2338C7.89835 15.0666 7.89835 15.9334 7.70299 16.7662V16.7662C7.47757 17.7272 6.72721 18.4776 5.7662 18.703V18.703C4.93337 18.8983 4.06663 18.8983 3.2338 18.703V18.703C2.27279 18.4776 1.52243 17.7272 1.29701 16.7662V16.7662C1.10166 15.9334 1.10166 15.0666 1.29701 14.2338V14.2338Z" stroke="#0095FF" stroke-width="1.5"/>
<path d="M12.297 3.2338C12.5224 2.27279 13.2728 1.52243 14.2338 1.29701V1.29701C15.0666 1.10165 15.9334 1.10165 16.7662 1.29701V1.29701C17.7272 1.52243 18.4776 2.27279 18.703 3.2338V3.2338C18.8983 4.06663 18.8983 4.93337 18.703 5.7662V5.7662C18.4776 6.72721 17.7272 7.47757 16.7662 7.70299V7.70299C15.9334 7.89835 15.0666 7.89835 14.2338 7.70299V7.70299C13.2728 7.47757 12.5224 6.72721 12.297 5.7662V5.7662C12.1017 4.93337 12.1017 4.06663 12.297 3.2338V3.2338Z" stroke="white" stroke-width="1.5"/>
<path d="M12.297 14.2338C12.5224 13.2728 13.2728 12.5224 14.2338 12.297V12.297C15.0666 12.1017 15.9334 12.1017 16.7662 12.297V12.297C17.7272 12.5224 18.4776 13.2728 18.703 14.2338V14.2338C18.8983 15.0666 18.8983 15.9334 18.703 16.7662V16.7662C18.4776 17.7272 17.7272 18.4776 16.7662 18.703V18.703C15.9334 18.8983 15.0666 18.8983 14.2338 18.703V18.703C13.2728 18.4776 12.5224 17.7272 12.297 16.7662V16.7662C12.1017 15.9334 12.1017 15.0666 12.297 14.2338V14.2338Z" stroke="white" stroke-width="1.5"/>
</svg>
