<svg width="19" height="20" viewBox="0 0 19 20" fill="none" xmlns="http://www.w3.org/2000/svg">
<path d="M1.27571 7.22642C1.95212 4.28371 4.15677 1.99738 6.96648 1.32481L7.18953 1.27141C8.70132 0.909529 10.2712 0.909529 11.783 1.27141L12.1641 1.36264C14.877 2.01204 17.0057 4.21958 17.6588 7.06088L17.7476 7.44741C18.0841 8.91126 18.0841 10.4382 17.7476 11.9021C17.0701 14.8499 14.5589 16.9268 11.6721 16.9268H10.6107C10.2622 16.9268 9.94672 17.1515 9.81425 17.4902C9.33289 18.7208 7.98904 19.3248 6.81593 18.8233L6.69777 18.7728C3.98688 17.6138 1.96607 15.1265 1.27909 12.1378C0.909229 10.5287 0.90585 8.83551 1.27571 7.22642Z" stroke="white" stroke-width="1.5" stroke-linecap="round"/>
</svg>
