<svg width="20" height="22" viewBox="0 0 20 22" fill="none" xmlns="http://www.w3.org/2000/svg">
<path d="M6.63501 17.5881L6.72877 16.7541L5.72463 16.6412L5.79794 17.649L6.63501 17.5881ZM13.3289 17.5881L14.166 17.649L14.2393 16.6412L13.2352 16.7541L13.3289 17.5881ZM13.2274 18.2303L14.0424 18.4307L14.0424 18.4307L13.2274 18.2303ZM13.1356 18.6033L12.3206 18.4029V18.4029L13.1356 18.6033ZM10.7696 20.9605L10.9649 21.7767L10.9649 21.7767L10.7696 20.9605ZM9.19429 20.9605L8.99903 21.7767H8.99903L9.19429 20.9605ZM6.82829 18.6033L7.64329 18.4029V18.4029L6.82829 18.6033ZM6.73657 18.2303L5.92156 18.4307V18.4307L6.73657 18.2303ZM6.54125 18.4222C8.8279 18.6792 11.136 18.6792 13.4227 18.4222L13.2352 16.7541C11.0731 16.9972 8.8908 16.9972 6.72877 16.7541L6.54125 18.4222ZM14.0424 18.4307C14.1055 18.1739 14.1468 17.9124 14.166 17.649L12.4919 17.5272C12.4795 17.6966 12.453 17.8648 12.4124 18.0299L14.0424 18.4307ZM13.9506 18.8037L14.0424 18.4307L12.4124 18.0299L12.3206 18.4029L13.9506 18.8037ZM10.9649 21.7767C12.4377 21.4244 13.5886 20.2759 13.9506 18.8037L12.3206 18.4029C12.1079 19.2682 11.4328 19.9389 10.5744 20.1442L10.9649 21.7767ZM8.99903 21.7767C9.64527 21.9313 10.3187 21.9313 10.9649 21.7767L10.5744 20.1442C10.1849 20.2374 9.77907 20.2374 9.38955 20.1442L8.99903 21.7767ZM6.01329 18.8037C6.37529 20.2759 7.52621 21.4244 8.99903 21.7767L9.38955 20.1442C8.53114 19.9389 7.85606 19.2682 7.64329 18.4029L6.01329 18.8037ZM5.92156 18.4307L6.01329 18.8037L7.64329 18.4029L7.55157 18.0299L5.92156 18.4307ZM5.79794 17.649C5.8171 17.9124 5.85842 18.1739 5.92156 18.4307L7.55157 18.0299C7.51097 17.8648 7.4844 17.6966 7.47208 17.5272L5.79794 17.649Z" fill="#0095FF"/>
<path d="M10.8213 0.910645C10.8213 0.447124 10.4456 0.0713665 9.98206 0.0713665C9.51854 0.0713665 9.14278 0.447124 9.14278 0.910645H10.8213ZM9.14278 2.035C9.14278 2.49852 9.51854 2.87427 9.98206 2.87427C10.4456 2.87427 10.8213 2.49852 10.8213 2.035H9.14278ZM9.14278 0.910645V2.035H10.8213V0.910645H9.14278Z" fill="#0095FF"/>
<path d="M3.29891 7.21383L4.10898 7.43332L4.10898 7.43332L3.29891 7.21383ZM7.92123 2.36795L7.66243 1.56957L7.66243 1.56957L7.92123 2.36795ZM3.24875 7.39898L2.43868 7.17949L2.43868 7.17949L3.24875 7.39898ZM3.03231 11.9528L3.85955 11.8112V11.8112L3.03231 11.9528ZM3.0575 12.0999L2.23026 12.2416L2.23026 12.2416L3.0575 12.0999ZM3.58963 17.0889L3.75717 16.2666L3.75717 16.2666L3.58963 17.0889ZM4.00099 17.1728L3.83345 17.9951H3.83345L4.00099 17.1728ZM15.9632 17.1728L16.1307 17.9951L15.9632 17.1728ZM16.3745 17.0889L16.207 16.2666L16.207 16.2666L16.3745 17.0889ZM16.9115 12.0717L17.7388 12.2134V12.2134L16.9115 12.0717ZM16.9382 11.9157L16.111 11.7741V11.7741L16.9382 11.9157ZM16.7431 7.43054L15.9313 7.64353V7.64353L16.7431 7.43054ZM16.6732 7.16432L17.485 6.95133V6.95133L16.6732 7.16432ZM12.1833 2.37483L12.4465 1.57789L12.1833 2.37483ZM17.0914 12.4377L16.6816 13.1702L17.0914 12.4377ZM2.89625 12.4248L3.29817 13.1616L2.89625 12.4248ZM4.10898 7.43332C4.65458 5.41968 6.20028 3.80807 8.18003 3.16633L7.66243 1.56957C5.14726 2.38487 3.18388 4.42917 2.48884 6.99434L4.10898 7.43332ZM4.05881 7.61847L4.10898 7.43332L2.48884 6.99434L2.43868 7.17949L4.05881 7.61847ZM3.85955 11.8112C3.62063 10.4157 3.68865 8.98463 4.05882 7.61847L2.43868 7.17949C2.00472 8.7811 1.925 10.4587 2.20507 12.0945L3.85955 11.8112ZM3.88474 11.9583L3.85955 11.8112L2.20507 12.0945L2.23026 12.2416L3.88474 11.9583ZM2.42851 14.6306C2.42851 13.9959 2.77972 13.4444 3.29817 13.1616L2.49433 11.688C1.45579 12.2545 0.749955 13.3602 0.749955 14.6306H2.42851ZM3.75717 16.2666C2.98685 16.1096 2.42851 15.4276 2.42851 14.6306H0.749955C0.749955 16.2201 1.8647 17.5941 3.42209 17.9113L3.75717 16.2666ZM4.16853 16.3504L3.75717 16.2666L3.42209 17.9113L3.83345 17.9951L4.16853 16.3504ZM15.7957 16.3504C11.959 17.132 8.00521 17.132 4.16853 16.3504L3.83345 17.9951C7.89125 18.8218 12.0729 18.8218 16.1307 17.9951L15.7957 16.3504ZM16.207 16.2666L15.7957 16.3504L16.1307 17.9951L16.5421 17.9113L16.207 16.2666ZM17.5357 14.6306C17.5357 15.4276 16.9773 16.1096 16.207 16.2666L16.5421 17.9113C18.0995 17.5941 19.2142 16.2201 19.2142 14.6306H17.5357ZM16.6816 13.1702C17.1915 13.4555 17.5357 14.0023 17.5357 14.6306H19.2142C19.2142 13.373 18.5225 12.2768 17.5012 11.7053L16.6816 13.1702ZM16.111 11.7741L16.0843 11.9301L17.7388 12.2134L17.7655 12.0573L16.111 11.7741ZM15.9313 7.64353C16.2849 8.9915 16.3462 10.4002 16.111 11.7741L17.7655 12.0573C18.0411 10.4476 17.9693 8.79708 17.5549 7.21755L15.9313 7.64353ZM15.8614 7.37731L15.9313 7.64353L17.5549 7.21755L17.485 6.95133L15.8614 7.37731ZM11.9201 3.17177C13.8565 3.81126 15.3409 5.3933 15.8614 7.37731L17.485 6.95133C16.8209 4.41996 14.9254 2.39656 12.4465 1.57789L11.9201 3.17177ZM8.18003 3.16633C9.39349 2.77298 10.7126 2.77298 11.9201 3.17177L12.4465 1.57789C10.8964 1.06594 9.21154 1.06742 7.66243 1.56957L8.18003 3.16633ZM17.5012 11.7053C17.6616 11.7951 17.7773 11.9879 17.7388 12.2134L16.0843 11.9301C15.9953 12.4496 16.2617 12.9352 16.6816 13.1702L17.5012 11.7053ZM2.23026 12.2416C2.18881 11.9995 2.3134 11.7867 2.49433 11.688L3.29817 13.1616C3.71172 12.936 3.97106 12.4624 3.88474 11.9583L2.23026 12.2416Z" fill="#363853"/>
</svg>
