<svg width="63" height="15" viewBox="0 0 63 15" fill="none" xmlns="http://www.w3.org/2000/svg">
<path d="M31.576 12.084C31.024 12.084 30.528 11.988 30.088 11.796C29.656 11.596 29.316 11.324 29.068 10.98C28.82 10.628 28.692 10.224 28.684 9.768H29.848C29.888 10.16 30.048 10.492 30.328 10.764C30.616 11.028 31.032 11.16 31.576 11.16C32.096 11.16 32.504 11.032 32.8 10.776C33.104 10.512 33.256 10.176 33.256 9.768C33.256 9.448 33.168 9.188 32.992 8.988C32.816 8.788 32.596 8.636 32.332 8.532C32.068 8.428 31.712 8.316 31.264 8.196C30.712 8.052 30.268 7.908 29.932 7.764C29.604 7.62 29.32 7.396 29.08 7.092C28.848 6.78 28.732 6.364 28.732 5.844C28.732 5.388 28.848 4.984 29.08 4.632C29.312 4.28 29.636 4.008 30.052 3.816C30.476 3.624 30.96 3.528 31.504 3.528C32.288 3.528 32.928 3.724 33.424 4.116C33.928 4.508 34.212 5.028 34.276 5.676H33.076C33.036 5.356 32.868 5.076 32.572 4.836C32.276 4.588 31.884 4.464 31.396 4.464C30.94 4.464 30.568 4.584 30.28 4.824C29.992 5.056 29.848 5.384 29.848 5.808C29.848 6.112 29.932 6.36 30.1 6.552C30.276 6.744 30.488 6.892 30.736 6.996C30.992 7.092 31.348 7.204 31.804 7.332C32.356 7.484 32.8 7.636 33.136 7.788C33.472 7.932 33.76 8.16 34 8.472C34.24 8.776 34.36 9.192 34.36 9.72C34.36 10.128 34.252 10.512 34.036 10.872C33.82 11.232 33.5 11.524 33.076 11.748C32.652 11.972 32.152 12.084 31.576 12.084ZM39.231 5.304C39.727 5.304 40.175 5.412 40.575 5.628C40.975 5.836 41.287 6.152 41.511 6.576C41.743 7 41.859 7.516 41.859 8.124V12H40.779V8.28C40.779 7.624 40.615 7.124 40.287 6.78C39.959 6.428 39.511 6.252 38.943 6.252C38.367 6.252 37.907 6.432 37.563 6.792C37.227 7.152 37.059 7.676 37.059 8.364V12H35.967V3.12H37.059V6.36C37.275 6.024 37.571 5.764 37.947 5.58C38.331 5.396 38.759 5.304 39.231 5.304ZM43.2348 8.688C43.2348 8.016 43.3708 7.428 43.6428 6.924C43.9148 6.412 44.2868 6.016 44.7588 5.736C45.2388 5.456 45.7708 5.316 46.3548 5.316C46.9308 5.316 47.4308 5.44 47.8548 5.688C48.2788 5.936 48.5948 6.248 48.8028 6.624V5.424H49.9068V12H48.8028V10.776C48.5868 11.16 48.2628 11.48 47.8308 11.736C47.4068 11.984 46.9108 12.108 46.3428 12.108C45.7588 12.108 45.2308 11.964 44.7588 11.676C44.2868 11.388 43.9148 10.984 43.6428 10.464C43.3708 9.944 43.2348 9.352 43.2348 8.688ZM48.8028 8.7C48.8028 8.204 48.7028 7.772 48.5028 7.404C48.3028 7.036 48.0308 6.756 47.6868 6.564C47.3508 6.364 46.9788 6.264 46.5708 6.264C46.1628 6.264 45.7908 6.36 45.4548 6.552C45.1188 6.744 44.8508 7.024 44.6508 7.392C44.4508 7.76 44.3508 8.192 44.3508 8.688C44.3508 9.192 44.4508 9.632 44.6508 10.008C44.8508 10.376 45.1188 10.66 45.4548 10.86C45.7908 11.052 46.1628 11.148 46.5708 11.148C46.9788 11.148 47.3508 11.052 47.6868 10.86C48.0308 10.66 48.3028 10.376 48.5028 10.008C48.7028 9.632 48.8028 9.196 48.8028 8.7ZM52.8441 6.492C53.0361 6.116 53.3081 5.824 53.6601 5.616C54.0201 5.408 54.4561 5.304 54.9681 5.304V6.432H54.6801C53.4561 6.432 52.8441 7.096 52.8441 8.424V12H51.7521V5.424H52.8441V6.492ZM62.2287 8.46C62.2287 8.668 62.2167 8.888 62.1927 9.12H56.9367C56.9767 9.768 57.1967 10.276 57.5967 10.644C58.0047 11.004 58.4967 11.184 59.0727 11.184C59.5447 11.184 59.9367 11.076 60.2487 10.86C60.5687 10.636 60.7927 10.34 60.9207 9.972H62.0967C61.9207 10.604 61.5687 11.12 61.0407 11.52C60.5127 11.912 59.8567 12.108 59.0727 12.108C58.4487 12.108 57.8887 11.968 57.3927 11.688C56.9047 11.408 56.5207 11.012 56.2407 10.5C55.9607 9.98 55.8207 9.38 55.8207 8.7C55.8207 8.02 55.9567 7.424 56.2287 6.912C56.5007 6.4 56.8807 6.008 57.3687 5.736C57.8647 5.456 58.4327 5.316 59.0727 5.316C59.6967 5.316 60.2487 5.452 60.7287 5.724C61.2087 5.996 61.5767 6.372 61.8327 6.852C62.0967 7.324 62.2287 7.86 62.2287 8.46ZM61.1007 8.232C61.1007 7.816 61.0087 7.46 60.8247 7.164C60.6407 6.86 60.3887 6.632 60.0687 6.48C59.7567 6.32 59.4087 6.24 59.0247 6.24C58.4727 6.24 58.0007 6.416 57.6087 6.768C57.2247 7.12 57.0047 7.608 56.9487 8.232H61.1007Z" fill="white"/>
<path d="M1 13.0275C1 11.359 2.21238 9.93782 3.86003 9.67486L4.00844 9.65117C5.3278 9.44061 6.6722 9.44061 7.99156 9.65117L8.13997 9.67486C9.78762 9.93782 11 11.359 11 13.0275C11 13.7487 10.4154 14.3333 9.69419 14.3333H2.30581C1.58463 14.3333 1 13.7487 1 13.0275Z" stroke="white" stroke-width="1.25"/>
<path d="M8.91667 3.91667C8.91667 5.5275 7.61083 6.83333 6 6.83333C4.38917 6.83333 3.08333 5.5275 3.08333 3.91667C3.08333 2.30584 4.38917 1 6 1C7.61083 1 8.91667 2.30584 8.91667 3.91667Z" stroke="white" stroke-width="1.25"/>
<path d="M11 6.83333C12.6108 6.83333 13.9167 5.5275 13.9167 3.91667C13.9167 2.30584 12.6108 1 11 1M12.9916 14.3333H14.6942C15.4154 14.3333 16 13.7487 16 13.0275C16 11.359 14.7876 9.93782 13.14 9.67486V9.67486C13.0412 9.65909 12.9411 9.65117 12.8411 9.65117C12.5746 9.65117 12.4919 9.65117 12.0343 9.65117" stroke="white" stroke-width="1.25" stroke-linecap="round"/>
</svg>
