<svg width="17" height="17" viewBox="0 0 17 17" fill="none" xmlns="http://www.w3.org/2000/svg">
<path d="M15.5582 16.4418C15.8022 16.6859 16.198 16.6859 16.442 16.4418C16.6861 16.1977 16.6861 15.802 16.442 15.5579L15.5582 16.4418ZM12.5041 13.3877L15.5582 16.4418L16.442 15.5579L13.388 12.5039L12.5041 13.3877Z" fill="#7D7D7D"/>
<path d="M1.26311 5.43668C1.74887 3.36581 3.36582 1.74887 5.43668 1.26311C6.93224 0.912298 8.48868 0.912298 9.98424 1.26311C12.0551 1.74887 13.6721 3.36582 14.1578 5.43668C14.5086 6.93224 14.5086 8.48868 14.1578 9.98423C13.6721 12.0551 12.0551 13.6721 9.98424 14.1578C8.48868 14.5086 6.93224 14.5086 5.43668 14.1578C3.36582 13.6721 1.74887 12.0551 1.26311 9.98424C0.912297 8.48868 0.912297 6.93224 1.26311 5.43668Z" stroke="#7D7D7D" stroke-width="1.25" stroke-linecap="round"/>
<path d="M1.26311 5.43668C0.912297 6.93224 0.912297 8.48868 1.26311 9.98424C1.74887 12.0551 3.36582 13.6721 5.43668 14.1578C6.93224 14.5086 8.48868 14.5086 9.98424 14.1578C12.0551 13.6721 13.6721 12.0551 14.1578 9.98423C14.5086 8.48868 14.5086 6.93224 14.1578 5.43668C13.6721 3.36582 12.0551 1.74887 9.98424 1.26311C8.48868 0.912298 6.93224 0.912298 5.43668 1.26311" stroke="#7D7D7D" stroke-width="1.25" stroke-linecap="round"/>
</svg>
