<svg width="14" height="18" viewBox="0 0 14 18" fill="none" xmlns="http://www.w3.org/2000/svg">
<path d="M1 15.433C1 13.4308 2.45485 11.7254 4.43204 11.4098L4.61013 11.3814C6.19336 11.1287 7.80664 11.1287 9.38987 11.3814L9.56796 11.4098C11.5451 11.7254 13 13.4308 13 15.433C13 16.2984 12.2984 17 11.433 17H2.56697C1.70156 17 1 16.2984 1 15.433Z" stroke="white" stroke-width="1.5"/>
<path d="M10.5 4.5C10.5 6.433 8.933 8 7 8C5.067 8 3.5 6.433 3.5 4.5C3.5 2.567 5.067 1 7 1C8.933 1 10.5 2.567 10.5 4.5Z" stroke="white" stroke-width="1.5"/>
</svg>
