<svg width="157" height="37" viewBox="0 0 157 37" fill="none" xmlns="http://www.w3.org/2000/svg">
<path d="M16.067 13.6282C15.3161 13.986 14.6621 14.5189 14.1599 15.1819C13.6577 15.845 13.322 16.6189 13.181 17.4386C13.04 18.2584 13.0979 19.1 13.3497 19.8927C13.6014 20.6855 14.0398 21.4062 14.628 21.9944C15.2161 22.5825 15.9369 23.0209 16.7296 23.2727C17.5224 23.5245 18.364 23.5823 19.1837 23.4413C20.0035 23.3003 20.7774 22.9646 21.4405 22.4624C22.1035 21.9602 22.6364 21.3062 22.9942 20.5554" stroke="#0095FF" stroke-width="2" stroke-linecap="round" stroke-linejoin="round"/>
<path d="M22.0043 7.68604C19.5999 6.84981 16.9829 6.85414 14.5813 7.69834C12.1797 8.54253 10.1356 10.1766 8.78321 12.3334C7.43087 14.4902 6.85035 17.042 7.13657 19.5715C7.42279 22.101 8.55883 24.4586 10.3589 26.2587C12.159 28.0587 14.5165 29.1948 17.0461 29.481C19.5756 29.7672 22.1274 29.1867 24.2842 27.8344C26.4409 26.482 28.075 24.4379 28.9192 22.0363C29.7634 19.6346 29.7678 17.0176 28.9315 14.6132" stroke="#0095FF" stroke-width="2" stroke-linecap="round" stroke-linejoin="round"/>
<path d="M26.584 3.10636C22.9286 1.11661 18.6787 0.510556 14.6129 1.39923C10.547 2.2879 6.93749 4.61179 4.44559 7.94514C1.95369 11.2785 0.746265 15.3981 1.04453 19.5493C1.3428 23.7004 3.12678 27.6051 6.06964 30.5479C9.0125 33.4908 12.9172 35.2748 17.0683 35.573C21.2194 35.8713 25.3391 34.6639 28.6724 32.172C32.0058 29.6801 34.3297 26.0705 35.2183 22.0047C36.107 17.9389 35.5009 13.6889 33.5112 10.0336" stroke="#0095FF" stroke-width="2" stroke-linecap="round" stroke-linejoin="round"/>
<path d="M35.6171 1.00049L18.2991 18.3185" stroke="#0095FF" stroke-width="2" stroke-linecap="round" stroke-linejoin="round"/>
<path d="M66.0482 4.26077V8.28778H58.1789V29.8637H53.4868V8.28778H45.6176V4.26077H66.0482ZM74.6964 26.7234C75.7478 26.7489 76.7993 26.6747 77.8367 26.5017V21.5511C77.4826 21.4545 77.1227 21.3805 76.7591 21.3294C76.2456 21.2522 75.7268 21.2151 75.2075 21.2185C74.7006 21.2196 74.1944 21.2566 73.6927 21.3294C73.2197 21.3974 72.7591 21.5344 72.3257 21.7358C71.9361 21.9292 71.6047 22.2224 71.3652 22.5855C71.1048 22.9788 70.9755 23.4443 70.9957 23.9155C70.9507 24.3403 71.0194 24.7693 71.1946 25.1588C71.3699 25.5483 71.6455 25.8842 71.9932 26.1322C72.8257 26.5662 73.7588 26.7703 74.6964 26.7234ZM74.3269 10.0611C75.5935 10.0282 76.8561 10.2157 78.0584 10.6153C78.9773 10.9216 79.8049 11.4529 80.466 12.1609C81.0957 12.8516 81.5406 13.6904 81.759 14.5992C82.0378 15.6097 82.1726 16.6545 82.1593 17.7026V29.4142C81.4696 29.562 80.4229 29.7344 79.019 29.9314C77.4662 30.1658 75.8973 30.277 74.3269 30.2639C73.2587 30.2735 72.1928 30.1619 71.1497 29.9314C70.2614 29.7396 69.42 29.3734 68.6743 28.8539C68.0001 28.3509 67.4554 27.6944 67.0857 26.9389C66.689 26.0163 66.4998 25.0178 66.5315 24.0141C66.5005 23.0401 66.7165 22.0741 67.1596 21.2062C67.5911 20.455 68.2 19.8208 68.933 19.359C69.7074 18.8518 70.5733 18.5004 71.4822 18.3245C72.4888 18.1005 73.5173 17.989 74.5486 17.992C75.0677 17.9939 75.5862 18.0309 76.1003 18.1028C76.6855 18.1594 77.2658 18.2582 77.8367 18.3984V17.6595C77.8391 17.161 77.777 16.6643 77.652 16.1817C77.5197 15.7145 77.2806 15.2843 76.9536 14.9253C76.6266 14.5662 76.2207 14.2881 75.7678 14.1128C75.1637 13.8972 74.5246 13.797 73.8836 13.8172C72.9308 13.8107 71.9791 13.8849 71.0388 14.0389C70.3232 14.15 69.6186 14.3231 68.933 14.5561L68.3788 10.9355C69.1885 10.679 70.0158 10.4814 70.8541 10.3444C72.0009 10.1461 73.1632 10.0513 74.3269 10.0611ZM92.4731 26.6495C93.3544 26.7022 94.2366 26.5635 95.0593 26.2431C95.3229 26.1015 95.54 25.8866 95.6842 25.6244C95.8284 25.3622 95.8937 25.0638 95.8721 24.7653C95.8705 24.4471 95.7884 24.1345 95.6334 23.8567C95.4783 23.5789 95.2554 23.3449 94.9854 23.1766C94.1 22.6003 93.1438 22.1408 92.1406 21.8097C91.3278 21.5141 90.5766 21.2062 89.887 20.886C89.2602 20.5674 88.6767 20.1701 88.1505 19.7038C87.6556 19.2573 87.2538 18.7175 86.9683 18.1152C86.679 17.3742 86.5409 16.5828 86.5619 15.7876C86.5281 14.9855 86.6884 14.1871 87.0293 13.4603C87.3702 12.7334 87.8816 12.0997 88.52 11.6128C90.0646 10.5042 91.9417 9.95675 93.8401 10.0611C94.9325 10.057 96.0223 10.1684 97.0912 10.3937C97.8819 10.5271 98.6603 10.7248 99.4188 10.9848L98.606 14.6054C97.999 14.3451 97.3679 14.145 96.7218 14.0081C95.851 13.7987 94.9573 13.6994 94.0617 13.7125C93.2939 13.6799 92.5305 13.8453 91.845 14.1928C91.5805 14.3167 91.3586 14.5161 91.2074 14.766C91.0562 15.0159 90.9824 15.305 90.9953 15.5967C90.9919 15.8872 91.0442 16.1757 91.1492 16.4465C91.2946 16.7195 91.496 16.9587 91.7404 17.1484C92.0821 17.3865 92.4424 17.5965 92.8179 17.7765C93.2613 17.9735 93.8031 18.1829 94.4435 18.4046C95.3675 18.739 96.2684 19.134 97.1405 19.5868C97.8144 19.9095 98.427 20.347 98.9508 20.8799C99.4336 21.3288 99.8029 21.886 100.028 22.5055C100.265 23.2198 100.378 23.9697 100.361 24.7222C100.404 25.5452 100.234 26.3654 99.8686 27.104C99.503 27.8426 98.9538 28.4749 98.2735 28.9401C96.5122 29.982 94.4786 30.4711 92.4362 30.344C91.0555 30.3808 89.6762 30.2317 88.3353 29.9006C87.5963 29.7218 86.8685 29.4997 86.1555 29.2356L86.9252 25.5042C87.6971 25.8083 88.4867 26.0653 89.2897 26.2739C90.3303 26.5351 91.4002 26.6613 92.4731 26.6495ZM108.989 18.0782L110.792 16.194L112.676 14.162C113.292 13.4724 113.87 12.8197 114.412 12.204C114.979 11.5636 115.459 11.0094 115.853 10.5414H121.136C119.905 11.9207 118.599 13.3493 117.22 14.8271C115.865 16.3049 114.499 17.7457 113.119 19.1496C113.947 19.8462 114.727 20.597 115.454 21.3971C116.267 22.2592 117.055 23.1828 117.819 24.168C118.582 25.1532 119.297 26.1384 119.962 27.1236C120.564 28.0069 121.119 28.9216 121.624 29.8637H116.452C116.009 29.1002 115.491 28.2997 114.9 27.4623C114.328 26.6174 113.712 25.8034 113.053 25.0239C112.388 24.2357 111.711 23.4968 111.021 22.8072C110.395 22.149 109.715 21.5435 108.989 20.9969V29.8637H104.525V1.93324L108.989 1.19434V18.0782ZM122.93 20.2949C122.9 18.7742 123.151 17.261 123.669 15.8307C124.124 14.6453 124.816 13.5644 125.701 12.6535C126.509 11.8105 127.493 11.1547 128.582 10.7323C129.636 10.2949 130.766 10.0689 131.907 10.0673C133.06 10.0014 134.213 10.1889 135.285 10.6166C136.358 11.0442 137.323 11.7017 138.114 12.5426C139.763 14.6369 140.568 17.2734 140.368 19.9316C140.368 20.1779 140.355 20.4612 140.331 20.7814C140.331 21.0769 140.318 21.3479 140.294 21.5942H127.548C127.59 22.9685 128.174 24.2703 129.173 25.2148C130.394 26.1271 131.901 26.5727 133.422 26.4709C134.415 26.4802 135.406 26.3811 136.378 26.1753C137.11 26.032 137.827 25.8217 138.52 25.5473L139.112 29.2048C138.776 29.3634 138.431 29.4992 138.077 29.6112C137.591 29.7497 137.098 29.8607 136.599 29.9437C136.014 30.0742 135.422 30.1728 134.826 30.2393C134.176 30.3137 133.522 30.3507 132.868 30.3501C131.357 30.3826 129.853 30.1319 128.434 29.6112C127.257 29.1477 126.197 28.4284 125.331 27.5054C124.512 26.5823 123.895 25.4979 123.521 24.3219C123.116 23.0184 122.917 21.6598 122.93 20.2949ZM135.897 18.2937C135.901 17.705 135.814 17.1193 135.639 16.5573C135.488 16.0276 135.225 15.5364 134.869 15.1165C134.55 14.6987 134.131 14.3683 133.65 14.1559C133.124 13.897 132.543 13.7702 131.957 13.7864C131.329 13.7722 130.708 13.9118 130.146 14.1928C129.64 14.4312 129.187 14.7707 128.816 15.1904C128.465 15.6206 128.19 16.108 128.003 16.6312C127.807 17.1688 127.671 17.7263 127.597 18.2937H135.897ZM156.117 14.5623C155.608 14.4054 155.09 14.2819 154.565 14.1928C153.825 14.0348 153.069 13.9605 152.312 13.9712C151.779 13.9769 151.247 14.0284 150.723 14.1251C150.336 14.1876 149.954 14.2739 149.578 14.3837V29.8637H145.114V11.4651C146.162 11.0927 147.237 10.7964 148.328 10.5784C149.748 10.2708 151.198 10.1221 152.65 10.135C152.996 10.1385 153.342 10.1632 153.685 10.2089C154.082 10.2359 154.477 10.2873 154.867 10.3629C155.253 10.4106 155.636 10.4847 156.012 10.5845C156.312 10.6407 156.608 10.7147 156.899 10.8062L156.117 14.5623Z" fill="black"/>
</svg>
