<svg width="81" height="83" viewBox="0 0 81 83" fill="none" xmlns="http://www.w3.org/2000/svg">
<mask id="mask0_5_453" style="mask-type:luminance" maskUnits="userSpaceOnUse" x="0" y="0" width="82" height="83">
<path d="M70.4848 1.05218e-05L0 10.2693L10.5158 82.4463L81.0006 72.177L70.4848 1.05218e-05Z" fill="white"/>
</mask>
<g mask="url(#mask0_5_453)">
<path d="M25.8296 18.5074C40.7201 15.6629 56.7059 13.2823 71.6593 11.7231C74.24 29.4361 76.2455 40.7249 77.1367 58.0019C77.3643 62.4152 76.7924 72.2858 65.3314 73.9556C53.7647 75.4478 42.2514 75.5589 30.3859 76.6995C33.2194 56.9102 28.2722 38.0332 25.8296 18.5074Z" fill="white"/>
<path d="M65.3949 74.4465C76.6966 72.7999 77.9121 63.4207 77.6304 57.9775C76.8812 43.4436 75.3193 32.9734 73.3416 19.7181C72.9608 17.1602 72.5625 14.4888 72.1493 11.6527C72.1298 11.5267 72.0629 11.4129 71.9623 11.3345C71.8616 11.2562 71.7349 11.2193 71.6079 11.2314C56.7392 12.7822 40.8779 15.1295 25.7367 18.0217C25.6138 18.0464 25.5047 18.1163 25.4309 18.2176C25.3571 18.319 25.3241 18.4443 25.3384 18.5688C25.9429 23.4113 26.715 28.2808 27.4598 32.9906C29.8035 47.8076 32.0178 61.8126 29.8967 76.6292C29.8862 76.7033 29.8926 76.7788 29.9155 76.8501C29.9383 76.9213 29.977 76.9865 30.0287 77.0406C30.0803 77.0948 30.1436 77.1365 30.2137 77.1627C30.2838 77.1888 30.3589 77.1988 30.4334 77.1917C35.4168 76.7153 40.4037 76.4152 45.234 76.1227C51.8456 75.7243 58.6808 75.3136 65.4028 74.4454M71.2382 12.2655C71.6261 14.9284 72.0032 17.4473 72.3635 19.8646C74.3363 33.0934 75.895 43.5418 76.6424 58.0284C76.9065 63.1357 75.7781 71.9333 65.2591 73.4659C58.5827 74.3284 51.7637 74.7389 45.17 75.1356C40.5359 75.4157 35.7528 75.6992 30.9626 76.1485C32.9568 61.3979 30.6578 46.8807 28.4367 32.8362C27.7168 28.2834 26.9732 23.5815 26.3781 18.9075C41.1927 16.0902 56.6839 13.7968 71.2382 12.2655Z" fill="black"/>
<path d="M15.5604 68.2122C30.0066 65.8488 44.5099 63.8428 58.7598 61.984C57.6104 70.152 62.8748 74.4762 65.3304 73.9557C51.7793 75.8037 38.6838 77.838 24.8815 79.8489C22.2845 79.8847 18.7639 79.2688 16.8615 75.9565C16.1344 74.8196 15.6444 73.5475 15.4208 72.2166C15.1972 70.8857 15.2448 69.5243 15.5604 68.2122Z" fill="white"/>
<path d="M65.2934 74.4644C65.3419 74.4574 65.3924 74.45 65.4389 74.4433C65.5529 74.4057 65.6496 74.3285 65.7113 74.2256C65.7731 74.1227 65.7957 74.001 65.7752 73.8827C65.7547 73.7645 65.6923 73.6576 65.5995 73.5815C65.5066 73.5055 65.3895 73.4654 65.2696 73.4685L65.0063 73.5068C63.9119 73.4228 62.889 72.9305 62.1406 72.1276C59.7593 69.9057 58.6814 66.1418 59.2588 62.0589C59.2684 61.9835 59.2608 61.907 59.2364 61.835C59.212 61.7631 59.1716 61.6976 59.1181 61.6437C59.0646 61.5897 58.9996 61.5486 58.9279 61.5235C58.8562 61.4985 58.7797 61.4901 58.7043 61.499C41.2115 63.7808 27.8881 65.7007 15.4891 67.7295C15.3965 67.7446 15.3101 67.7858 15.24 67.8482C15.17 67.9107 15.1193 67.9919 15.0938 68.0822C14.7647 69.4581 14.7145 70.8861 14.9459 72.2818C15.1774 73.6775 15.6859 75.0127 16.4415 76.2088C18.0296 78.9727 20.9532 80.4021 24.8979 80.3499C24.9195 80.3483 24.941 80.3451 24.9622 80.3405C29.6131 79.6629 34.1878 78.9822 38.7248 78.3071C47.7315 76.9655 56.2437 75.6981 65.1226 74.4853C65.181 74.4768 65.2393 74.4744 65.2967 74.466M51.9427 75.3505C47.5362 75.9925 43.1169 76.6505 38.5699 77.3271C34.0448 78.0006 29.4841 78.6802 24.8431 79.3564C22.3623 79.3853 19.0495 78.7736 17.2901 75.7072C15.9669 73.6072 15.4908 71.0831 15.958 68.6455C28.099 66.6624 41.1709 64.7781 58.193 62.5537C57.7717 66.7088 58.9715 70.5187 61.4615 72.842C61.8525 73.2098 62.2826 73.5338 62.7441 73.8081C59.1147 74.3106 55.5342 74.8232 51.9441 75.3463" fill="black"/>
<path d="M37.7953 22.6596C37.0478 18.119 34.548 14.0531 30.8337 11.3364C27.1193 8.61984 22.4871 7.46955 17.9334 8.133C13.3797 8.79645 9.26832 11.2206 6.48352 14.8841C3.69872 18.5476 2.46302 23.1578 3.04219 27.723C3.78969 32.2636 6.28945 36.3295 10.0038 39.0461C13.7181 41.7628 18.3503 42.913 22.904 42.2496C27.4577 41.5861 31.5691 39.162 34.3539 35.4985C37.1387 31.835 38.3744 27.2248 37.7953 22.6596Z" fill="white"/>
<path d="M22.972 42.7163C27.6692 42.0721 31.9191 39.5913 34.7898 35.8181C37.6604 32.0448 38.9174 27.287 38.2851 22.5883C37.5176 17.9187 34.9477 13.7369 31.1284 10.9428C27.3091 8.14865 22.5455 6.96543 17.8627 7.64769C13.1799 8.32996 8.95199 10.8232 6.0887 14.5909C3.22541 18.3587 1.95556 23.0999 2.55235 27.7944C3.28704 32.4782 5.84934 36.6795 9.67728 39.4768C13.5052 42.2741 18.2863 43.4391 22.972 42.7163ZM18.0082 8.64601C22.4341 7.96047 26.9513 9.05833 30.5689 11.6988C34.1865 14.3393 36.6091 18.3067 37.3054 22.731C37.8531 27.1603 36.6443 31.6279 33.9378 35.1766C31.2314 38.7253 27.2427 41.0729 22.8263 41.7164C18.41 42.3598 13.9173 41.2479 10.3108 38.6189C6.70428 35.99 4.27091 32.053 3.53201 27.6516C2.937 23.2126 4.12688 18.7188 6.84067 15.1559C9.55446 11.593 13.5706 9.25183 18.0082 8.64601Z" fill="black"/>
<path d="M20.5844 28.5546L20.5992 28.5525C20.6686 28.5403 20.7346 28.5136 20.7929 28.4741C20.8513 28.4346 20.9006 28.3832 20.9377 28.3233L25.7293 20.5098C25.7943 20.3981 25.813 20.2654 25.7815 20.14C25.7499 20.0147 25.6706 19.9067 25.5604 19.839C25.4502 19.7714 25.318 19.7495 25.1919 19.7781C25.0659 19.8067 24.956 19.8835 24.8858 19.992L20.3897 27.3228L11.5877 20.1368C11.5377 20.0932 11.4795 20.0601 11.4164 20.0395C11.3534 20.0189 11.2869 20.0112 11.2208 20.0168C11.1547 20.0224 11.0904 20.0412 11.0318 20.0721C10.9731 20.1031 10.9212 20.1455 10.8793 20.1968C10.8373 20.2482 10.8061 20.3074 10.7875 20.3711C10.7689 20.4348 10.7633 20.5015 10.7709 20.5674C10.7786 20.6332 10.7995 20.6969 10.8322 20.7546C10.865 20.8122 10.909 20.8627 10.9617 20.903L20.2032 28.4495C20.2563 28.4931 20.3179 28.5251 20.3841 28.5435C20.4503 28.5618 20.5196 28.5662 20.5876 28.5562" fill="black"/>
<path d="M18.5541 12.3935C18.5974 12.3872 18.6364 12.3639 18.6626 12.3288C18.6887 12.2938 18.6999 12.2497 18.6936 12.2064L18.337 9.75925C18.3307 9.71595 18.3075 9.67693 18.2724 9.65077C18.2373 9.62461 18.1933 9.61346 18.15 9.61977C18.1067 9.62608 18.0676 9.64933 18.0415 9.68441C18.0153 9.71949 18.0042 9.76353 18.0105 9.80683L18.367 12.254C18.3733 12.2973 18.3966 12.3363 18.4317 12.3625C18.4667 12.3886 18.5108 12.3998 18.5541 12.3935Z" fill="black"/>
<path d="M22.6873 40.7619C22.7306 40.7556 22.7696 40.7323 22.7958 40.6972C22.8219 40.6622 22.8331 40.6181 22.8268 40.5748L22.4702 38.1277C22.4639 38.0844 22.4407 38.0453 22.4056 38.0192C22.3705 37.993 22.3265 37.9819 22.2832 37.9882C22.2398 37.9945 22.2008 38.0177 22.1747 38.0528C22.1485 38.0879 22.1374 38.1319 22.1437 38.1752L22.5002 40.6224C22.5065 40.6657 22.5298 40.7047 22.5648 40.7309C22.5999 40.757 22.644 40.7682 22.6873 40.7619Z" fill="black"/>
<path d="M4.72525 27.6435L7.2209 27.2799C7.26167 27.2707 7.29746 27.2464 7.32112 27.212C7.34479 27.1775 7.35459 27.1354 7.34857 27.094C7.34254 27.0527 7.32113 27.0151 7.28862 26.9888C7.2561 26.9626 7.21488 26.9495 7.17318 26.9523L4.67753 27.3159C4.63676 27.3252 4.60096 27.3494 4.5773 27.3839C4.55363 27.4183 4.54384 27.4604 4.54986 27.5018C4.55589 27.5431 4.57729 27.5807 4.60981 27.607C4.64232 27.6332 4.68355 27.6463 4.72525 27.6435Z" fill="black"/>
<path d="M33.6637 23.4273L36.1594 23.0637C36.2001 23.0545 36.2359 23.0302 36.2596 22.9958C36.2833 22.9613 36.2931 22.9192 36.287 22.8778C36.281 22.8365 36.2596 22.7989 36.2271 22.7726C36.1946 22.7464 36.1534 22.7333 36.1117 22.7361L33.616 23.0997C33.5752 23.109 33.5394 23.1332 33.5158 23.1677C33.4921 23.2021 33.4823 23.2442 33.4883 23.2856C33.4944 23.327 33.5158 23.3645 33.5483 23.3908C33.5808 23.4171 33.622 23.4301 33.6637 23.4273Z" fill="black"/>
<path d="M62.4832 26.3631C61.993 26.4382 61.5351 26.6534 61.1644 26.9828C60.7937 27.3122 60.5262 27.7417 60.394 28.2196C60.3092 28.5225 60.2889 28.8397 60.3345 29.1509C60.3801 29.462 60.4905 29.7601 60.6586 30.0259C60.8267 30.2916 61.0487 30.5192 61.3103 30.6937C61.5719 30.8682 61.8672 30.9859 62.1771 31.039C62.8155 31.1026 63.4544 30.9227 63.9658 30.5353C64.4771 30.1478 64.8232 29.5814 64.9347 28.9496C64.9633 28.6142 64.9206 28.2766 64.8094 27.9588C64.6982 27.6411 64.5209 27.3505 64.2894 27.1062C64.0578 26.8619 63.7771 26.6694 63.4658 26.5413C63.1545 26.4132 62.8196 26.3524 62.4832 26.3631Z" fill="#0086D5"/>
<path d="M62.8687 31.5274C63.3666 31.4516 63.8378 31.2531 64.2397 30.9497C64.8734 30.487 65.2992 29.7932 65.4247 29.0187C65.4664 28.5891 65.4108 28.1556 65.262 27.7504C65.1133 27.3452 64.8751 26.9787 64.5653 26.6781C64.2945 26.387 63.9599 26.1627 63.5878 26.0228C63.2157 25.8829 62.8161 25.8313 62.4207 25.8719C61.8396 25.9573 61.2955 26.2086 60.8537 26.5956C60.4119 26.9826 60.0913 27.489 59.9302 28.0538C59.8116 28.4083 59.7732 28.7847 59.8177 29.1558C59.8621 29.527 59.9884 29.8836 60.1873 30.2001C60.3904 30.5478 60.6673 30.8466 60.9986 31.0755C61.3298 31.3044 61.7073 31.4577 62.1043 31.5246C62.3576 31.5614 62.6149 31.561 62.8681 31.5234M62.547 26.8499C62.7908 26.8289 63.0362 26.8645 63.264 26.954C63.4918 27.0435 63.6958 27.1845 63.8601 27.366C64.0626 27.5587 64.2199 27.7938 64.3208 28.0544C64.4216 28.3151 64.4636 28.5948 64.4436 28.8736C64.3563 29.3878 64.0694 29.8466 63.6452 30.1501C63.2494 30.4598 62.7474 30.6008 62.2482 30.5426C61.9958 30.4976 61.7563 30.3978 61.5466 30.2503C61.3369 30.1028 61.162 29.911 61.0344 29.6886C60.9104 29.497 60.8304 29.2803 60.8 29.0541C60.7697 28.8279 60.7898 28.5978 60.859 28.3803C60.9654 27.9975 61.1768 27.6522 61.4693 27.3833C61.7617 27.1144 62.1236 26.9327 62.5139 26.8588L62.5466 26.854" fill="black"/>
<path d="M64.2565 38.5346C63.7663 38.6097 63.3084 38.8249 62.9377 39.1543C62.5671 39.4837 62.2995 39.9132 62.1673 40.3912C62.0825 40.694 62.0623 41.0112 62.1078 41.3224C62.1534 41.6335 62.2638 41.9316 62.4319 42.1974C62.6 42.4632 62.822 42.6907 63.0836 42.8652C63.3452 43.0397 63.6405 43.1574 63.9504 43.2105C64.5888 43.2742 65.2277 43.0942 65.7391 42.7068C66.2504 42.3193 66.5965 41.7529 66.708 41.1211C66.7366 40.7857 66.6939 40.4481 66.5827 40.1303C66.4715 39.8126 66.2942 39.522 66.0627 39.2777C65.8311 39.0334 65.5504 38.8409 65.2391 38.7128C64.9278 38.5847 64.5929 38.524 64.2565 38.5346Z" fill="#0086D5"/>
<path d="M64.642 43.6989C65.1399 43.6231 65.6111 43.4246 66.0131 43.1212C66.6467 42.6585 67.0725 41.9647 67.198 41.1902C67.2397 40.7606 67.1841 40.3271 67.0354 39.9219C66.8866 39.5167 66.6484 39.1502 66.3386 38.8496C66.0679 38.5585 65.7332 38.3342 65.3611 38.1943C64.989 38.0544 64.5895 38.0028 64.194 38.0434C63.6129 38.1288 63.0688 38.3801 62.627 38.7671C62.1853 39.1542 61.8646 39.6605 61.7035 40.2253C61.585 40.5798 61.5465 40.9562 61.591 41.3273C61.6355 41.6985 61.7617 42.0552 61.9606 42.3716C62.1637 42.7193 62.4406 43.0181 62.7719 43.247C63.1031 43.4759 63.4806 43.6292 63.8776 43.6961C64.1309 43.7329 64.3883 43.7325 64.6414 43.695M64.3203 39.0214C64.5641 39.0004 64.8096 39.036 65.0374 39.1255C65.2652 39.215 65.4692 39.356 65.6334 39.5375C65.8359 39.7302 65.9932 39.9653 66.0941 40.2259C66.1949 40.4866 66.2369 40.7664 66.2169 41.0451C66.1296 41.5593 65.8427 42.0181 65.4186 42.3216C65.0228 42.6313 64.5207 42.7723 64.0216 42.7141C63.7691 42.6691 63.5296 42.5693 63.3199 42.4218C63.1102 42.2743 62.9354 42.0826 62.8078 41.8602C62.6837 41.6685 62.6037 41.4518 62.5734 41.2256C62.543 40.9994 62.5631 40.7693 62.6323 40.5518C62.7387 40.169 62.9501 39.8237 63.2426 39.5548C63.535 39.2859 63.8969 39.1042 64.2872 39.0303L64.3199 39.0255" fill="black"/>
<path d="M65.8798 49.6759C65.3896 49.7511 64.9317 49.9663 64.561 50.2957C64.1904 50.6251 63.9228 51.0546 63.7906 51.5325C63.7058 51.8353 63.6855 52.1526 63.7311 52.4637C63.7767 52.7749 63.8871 53.073 64.0552 53.3387C64.2233 53.6045 64.4453 53.832 64.7069 54.0066C64.9685 54.1811 65.2638 54.2987 65.5737 54.3519C66.2121 54.4155 66.851 54.2356 67.3624 53.8481C67.8737 53.4607 68.2198 52.8943 68.3313 52.2625C68.3599 51.9271 68.3172 51.5894 68.206 51.2717C68.0948 50.954 67.9175 50.6634 67.686 50.4191C67.4544 50.1748 67.1737 49.9822 66.8624 49.8541C66.5511 49.726 66.2162 49.6653 65.8798 49.6759Z" fill="#0086D5"/>
<path d="M66.2653 54.8403C66.7632 54.7645 67.2344 54.5659 67.6363 54.2626C68.27 53.7999 68.6958 53.106 68.8213 52.3315C68.863 51.9019 68.8074 51.4684 68.6587 51.0632C68.5099 50.658 68.2717 50.2916 67.9619 49.991C67.6911 49.6999 67.3565 49.4756 66.9844 49.3357C66.6123 49.1958 66.2127 49.1441 65.8173 49.1848C65.2362 49.2702 64.6921 49.5215 64.2503 49.9085C63.8086 50.2955 63.4879 50.8018 63.3268 51.3666C63.2082 51.7211 63.1698 52.0975 63.2143 52.4687C63.2587 52.8398 63.385 53.1965 63.5839 53.513C63.787 53.8607 64.0639 54.1595 64.3952 54.3884C64.7264 54.6172 65.1039 54.7705 65.5009 54.8374C65.7542 54.8743 66.0115 54.8739 66.2647 54.8363M65.9436 50.1628C66.1874 50.1417 66.4329 50.1773 66.6607 50.2669C66.8884 50.3564 67.0925 50.4974 67.2567 50.6789C67.4592 50.8715 67.6165 51.1066 67.7174 51.3673C67.8182 51.628 67.8602 51.9077 67.8402 52.1865C67.7529 52.7006 67.466 53.1595 67.0418 53.4629C66.646 53.7726 66.144 53.9137 65.6448 53.8554C65.3924 53.8105 65.1529 53.7107 64.9432 53.5632C64.7335 53.4156 64.5587 53.2239 64.431 53.0015C64.307 52.8099 64.227 52.5932 64.1966 52.367C64.1663 52.1408 64.1864 51.9106 64.2556 51.6931C64.362 51.3104 64.5734 50.965 64.8659 50.6962C65.1583 50.4273 65.5202 50.2456 65.9105 50.1716L65.9432 50.1669" fill="black"/>
<path d="M41.6499 31.8116L55.9985 29.721C56.0418 29.7147 56.0808 29.6915 56.1069 29.6564C56.1331 29.6213 56.1442 29.5773 56.1379 29.534C56.1316 29.4907 56.1084 29.4517 56.0733 29.4255C56.0382 29.3993 55.9942 29.3882 55.9509 29.3945L41.6024 31.485C41.5591 31.4913 41.52 31.5146 41.4939 31.5496C41.4677 31.5847 41.4566 31.6288 41.4629 31.6721C41.4692 31.7154 41.4924 31.7544 41.5275 31.7806C41.5626 31.8067 41.6066 31.8179 41.6499 31.8116Z" fill="black"/>
<path d="M37.3902 44.8074L57.767 41.8386C57.8103 41.8323 57.8494 41.809 57.8755 41.774C57.9017 41.7389 57.9128 41.6948 57.9065 41.6515C57.9002 41.6082 57.877 41.5692 57.8419 41.543C57.8068 41.5169 57.7628 41.5057 57.7195 41.512L37.3426 44.4809C37.2993 44.4872 37.2603 44.5104 37.2341 44.5455C37.208 44.5806 37.1968 44.6246 37.2031 44.6679C37.2094 44.7112 37.2327 44.7502 37.2678 44.7764C37.3028 44.8026 37.3469 44.8137 37.3902 44.8074Z" fill="black"/>
<path d="M38.5672 56.3473L58.944 53.3785C58.9873 53.3722 59.0264 53.349 59.0525 53.3139C59.0787 53.2788 59.0898 53.2348 59.0835 53.1915C59.0772 53.1481 59.054 53.1091 59.0189 53.083C58.9838 53.0568 58.9398 53.0457 58.8965 53.052L38.5196 56.0208C38.4763 56.0271 38.4373 56.0503 38.4111 56.0854C38.385 56.1205 38.3738 56.1645 38.3801 56.2078C38.3864 56.2511 38.4097 56.2902 38.4448 56.3163C38.4798 56.3425 38.5239 56.3536 38.5672 56.3473Z" fill="black"/>
</g>
</svg>
