<svg width="329" height="254" viewBox="0 0 329 254" fill="none" xmlns="http://www.w3.org/2000/svg">
<path d="M186.318 54.8908H38.5061L38.5086 54.8753L41.7284 34.7653H188.992V34.7798L186.318 54.8908ZM38.5366 54.8638H186.297L188.964 34.7918H41.7514L38.5366 54.8638Z" fill="#263238"/>
<mask id="mask0_5_231" style="mask-type:luminance" maskUnits="userSpaceOnUse" x="29" y="4" width="165" height="110">
<path d="M193.088 4.75671H29.049V113.384H193.088V4.75671Z" fill="white"/>
</mask>
<g mask="url(#mask0_5_231)">
<path d="M46.5276 4.87769L192.949 4.75671H193.087L193.069 4.89368C188.753 37.413 183.858 74.2894 178.687 113.237L178.671 113.354H176.875L29.1779 113.329H29.049L29.0689 113.202C39.6411 47.6068 46.3836 5.77399 46.5276 4.87769C46.3846 5.77349 39.7291 47.6183 29.2859 113.237L29.1779 113.109L176.875 113.085H178.554L178.421 113.202C183.601 74.2554 188.505 37.3805 192.83 4.86169L192.949 4.99866L46.5276 4.87769Z" fill="#263238"/>
<path d="M188.977 34.7774C188.977 34.8514 156.015 34.9114 115.363 34.9114C74.696 34.9114 41.7402 34.8514 41.7402 34.7774C41.7402 34.7034 74.6955 34.6434 115.363 34.6434C156.015 34.6434 188.977 34.7034 188.977 34.7774Z" fill="#263238"/>
<path d="M186.307 54.8763C186.307 54.9503 153.158 55.0102 112.277 55.0102C71.3812 55.0102 38.24 54.9503 38.24 54.8763C38.24 54.8023 71.3827 54.7423 112.277 54.7423C153.158 54.7423 186.307 54.8023 186.307 54.8763Z" fill="#263238"/>
<path d="M183.3 73.3675C183.3 73.4415 150.151 73.5015 109.269 73.5015C68.375 73.5015 35.2323 73.4415 35.2323 73.3675C35.2323 73.2935 68.375 73.2335 109.269 73.2335C150.15 73.2335 183.299 73.2935 183.299 73.3675" fill="#263238"/>
<path d="M180.294 91.8586C180.294 91.9326 147.145 91.9925 106.264 91.9925C65.3685 91.9925 32.2273 91.9326 32.2273 91.8586C32.2273 91.7846 65.37 91.7246 106.264 91.7246C147.145 91.7246 180.294 91.7846 180.294 91.8586Z" fill="#263238"/>
<path d="M49.9889 113.384C49.9159 113.373 52.6223 95.7653 56.034 74.0621C59.4458 52.3588 62.2712 34.7662 62.3441 34.7777C62.4171 34.7892 59.7112 52.3913 56.2985 74.1035C52.8857 95.8158 50.0619 113.395 49.9889 113.384Z" fill="#263238"/>
<path d="M72.7754 113.384C72.7024 113.373 75.4088 95.7653 78.8205 74.0621C82.2323 52.3588 85.0577 34.7662 85.1306 34.7777C85.2036 34.7892 82.4977 52.3913 79.085 74.1035C75.6722 95.8158 72.8484 113.395 72.7754 113.384Z" fill="#263238"/>
<path d="M93.9479 112.597C93.8749 112.586 96.5533 95.1547 99.931 73.6684C103.309 52.1731 106.106 34.766 106.18 34.777C106.253 34.788 103.575 52.2161 100.196 73.7099C96.8192 95.1957 94.0214 112.608 93.9474 112.597" fill="#263238"/>
<path d="M114.9 113.22C114.827 113.208 117.527 95.6375 120.932 73.9782C124.336 52.319 127.156 34.7644 127.23 34.7759C127.305 34.7874 124.603 52.3545 121.198 74.0197C117.793 95.6774 114.974 113.229 114.899 113.218" fill="#263238"/>
<path d="M135.949 113.22C135.876 113.208 138.577 95.6375 141.981 73.9782C145.384 52.319 148.205 34.7644 148.279 34.7759C148.354 34.7874 145.651 52.356 142.246 74.0212C138.841 95.679 136.022 113.231 135.947 113.22" fill="#263238"/>
<path d="M156.98 113.334C156.907 113.323 159.612 95.7268 163.021 74.0371C166.431 52.3418 169.255 34.7662 169.328 34.7777C169.401 34.7892 166.697 52.3818 163.286 74.0791C159.877 95.7688 157.053 113.346 156.98 113.334Z" fill="#263238"/>
<path d="M138.689 75.5231C138.734 75.5826 134.823 78.5754 129.957 82.2076C125.092 85.8398 121.109 88.7367 121.065 88.6772C121.02 88.6177 124.929 85.6279 129.797 81.9922C134.665 78.3565 138.645 75.4641 138.689 75.5231Z" fill="#263238"/>
<path d="M140.207 88.202C140.167 88.2645 136.017 85.69 130.938 82.4532C125.859 79.2164 121.772 76.539 121.812 76.477C121.852 76.4151 126.001 78.989 131.082 82.2258C136.163 85.4626 140.247 88.1395 140.207 88.2015" fill="#263238"/>
<path d="M99.53 57.4889C99.5745 57.5484 95.6644 60.5412 90.7984 64.1734C85.9325 67.8056 81.9504 70.7025 81.9059 70.643C81.8614 70.5835 85.77 67.5937 90.638 63.958C95.5059 60.3223 99.486 57.4299 99.53 57.4889Z" fill="#263238"/>
<path d="M101.048 70.1677C101.008 70.2301 96.8576 67.6557 91.7788 64.4189C86.6999 61.1821 82.6128 58.5047 82.6528 58.4427C82.6927 58.3808 86.8423 60.9547 91.9232 64.1915C97.0041 67.4283 101.088 70.1052 101.048 70.1672" fill="#263238"/>
<path d="M71.256 94.0719C71.3004 94.1314 67.3903 97.1243 62.5244 100.756C57.6585 104.389 53.6763 107.286 53.6318 107.226C53.5874 107.167 57.496 104.177 62.3639 100.541C67.2318 96.9053 71.212 94.0129 71.256 94.0719Z" fill="#263238"/>
<path d="M72.7735 106.751C72.734 106.813 68.5835 104.239 63.5046 101.002C58.4257 97.7653 54.3386 95.0879 54.3786 95.0259C54.4186 94.9639 58.5682 97.5378 63.649 100.775C68.7299 104.011 72.8135 106.688 72.7735 106.75" fill="#263238"/>
</g>
<mask id="mask1_5_231" style="mask-type:luminance" maskUnits="userSpaceOnUse" x="40" y="57" width="16" height="15">
<path d="M55.1089 57.2672H40.9V71.0317H55.1089V57.2672Z" fill="white"/>
</mask>
<g mask="url(#mask1_5_231)">
<path d="M54.5235 57.5752C54.5235 57.5752 55.8517 65.7919 54.506 71.0322L41.5204 70.7528C41.5204 70.7528 44.1773 62.3856 42.4947 58.2036L54.5235 57.5752Z" fill="#EBEBEB"/>
<path d="M54.473 57.2672C54.473 57.2672 54.3851 67.5999 53.8602 70.7522L40.9 70.1394C40.9 70.1394 42.0383 59.9816 41.5999 57.2672H54.473Z" fill="#0086D5"/>
<path d="M43.554 61.6094C43.5515 61.6594 45.4955 61.8128 47.8965 61.9593C50.2975 62.1058 52.2455 62.1823 52.2505 62.1343C52.2555 62.0863 50.309 61.9308 47.907 61.7843C45.505 61.6379 43.558 61.5614 43.554 61.6094Z" fill="white"/>
<path d="M43.5499 63.7963C43.5474 63.8463 45.4915 63.9997 47.8925 64.1462C50.2934 64.2927 52.2415 64.3691 52.2465 64.3212C52.2515 64.2732 50.3049 64.1177 47.903 63.9712C45.501 63.8248 43.5539 63.7483 43.5499 63.7963Z" fill="white"/>
<path d="M45.7532 65.945C45.9888 66.0082 46.2311 66.0433 46.475 66.0494C46.9224 66.0919 47.5413 66.1389 48.2246 66.1804C48.908 66.2219 49.5288 66.2494 49.9777 66.2604C50.2207 66.2836 50.4655 66.2777 50.7071 66.2429C50.4715 66.1792 50.2292 66.1441 49.9852 66.1384C49.5353 66.0959 48.919 66.0484 48.2356 66.0074C47.5523 65.9665 46.9319 65.9385 46.4825 65.9275C46.2396 65.9043 45.9947 65.9101 45.7532 65.945Z" fill="white"/>
</g>
<g opacity="0.1">
<mask id="mask2_5_231" style="mask-type:luminance" maskUnits="userSpaceOnUse" x="182" y="33" width="113" height="113">
<path d="M294.231 33.7628H182.594V145.399H294.231V33.7628Z" fill="white"/>
</mask>
<g mask="url(#mask2_5_231)">
<path d="M238.412 145.142C269.098 145.142 293.973 120.267 293.973 89.5813C293.973 58.8959 269.098 34.0205 238.412 34.0205C207.727 34.0205 182.852 58.8959 182.852 89.5813C182.852 120.267 207.727 145.142 238.412 145.142Z" stroke="black" stroke-miterlimit="10"/>
<path d="M238.413 135.802C264.184 135.802 285.075 114.91 285.075 89.1388C285.075 63.3677 264.184 42.4761 238.413 42.4761C212.642 42.4761 191.75 63.3677 191.75 89.1388C191.75 114.91 212.642 135.802 238.413 135.802Z" stroke="black" stroke-miterlimit="10"/>
<path d="M285.075 89.1382C285.075 89.1382 285.06 88.8817 285.042 88.3819C285.012 87.882 285.031 87.1361 284.942 86.1638C284.755 83.3232 284.31 80.5053 283.613 77.7452C283.106 75.7531 282.466 73.7971 281.699 71.89C280.796 69.6171 279.709 67.4215 278.45 65.3249C275.377 60.2028 271.359 55.711 266.61 52.0884C260.842 47.6999 254.128 44.7213 247.004 43.3903C240.967 42.2767 234.771 42.3487 228.762 43.6022C226.651 44.0579 224.572 44.6509 222.539 45.3773C213.884 48.5338 206.356 54.1811 200.905 61.6078C199.482 63.5412 198.213 65.5833 197.11 67.7154C196.537 68.7817 196.048 69.8939 195.548 71.0057C195.098 72.1389 194.635 73.2717 194.264 74.4439C193.478 76.791 192.885 79.1985 192.492 81.6423C192.102 84.1199 191.899 86.6232 191.883 89.1312C191.898 91.6399 192.101 94.144 192.49 96.6225C192.883 99.0673 193.475 101.476 194.261 103.824C194.631 104.996 195.096 106.13 195.544 107.264C196.044 108.375 196.533 109.489 197.107 110.555C198.209 112.688 199.478 114.73 200.9 116.664C206.353 124.093 213.883 129.742 222.542 132.898C224.575 133.624 226.654 134.217 228.765 134.673C234.776 135.927 240.973 135.998 247.011 134.884C254.136 133.554 260.85 130.575 266.618 126.186C271.367 122.563 275.384 118.071 278.456 112.949C279.715 110.853 280.8 108.657 281.702 106.385C282.47 104.478 283.109 102.522 283.617 100.53C284.314 97.77 284.758 94.9527 284.945 92.1125C285.032 91.1402 285.014 90.3944 285.045 89.895C285.063 89.3951 285.078 89.1387 285.078 89.1387C285.078 89.1387 285.081 89.3946 285.073 89.8955C285.052 90.3954 285.079 91.1417 285.001 92.1155C284.721 97.028 283.648 101.863 281.823 106.432C280.926 108.715 279.843 110.92 278.587 113.026C275.517 118.175 271.494 122.693 266.734 126.337C260.947 130.756 254.205 133.759 247.049 135.103C240.983 136.229 234.756 136.163 228.715 134.91C226.593 134.453 224.502 133.859 222.457 133.13C213.749 129.963 206.175 124.288 200.69 116.82C199.258 114.876 197.982 112.822 196.872 110.677C196.295 109.605 195.804 108.485 195.3 107.368C194.85 106.227 194.381 105.088 194.008 103.908C193.218 101.547 192.622 99.1248 192.226 96.666C191.835 94.1734 191.631 91.6549 191.615 89.1317C191.631 86.6094 191.836 84.092 192.229 81.6003C192.624 79.1424 193.22 76.721 194.011 74.3604C194.384 73.1817 194.851 72.042 195.303 70.9022C195.806 69.784 196.298 68.6657 196.875 67.5934C197.985 65.4499 199.261 63.3967 200.692 61.4528C206.177 53.9868 213.751 48.3129 222.458 45.1469C224.502 44.4179 226.593 43.8235 228.715 43.3673C234.755 42.1131 240.982 42.047 247.048 43.1728C254.202 44.5175 260.943 47.519 266.729 51.9369C271.489 55.5813 275.512 60.099 278.582 65.2485C279.839 67.3545 280.922 69.5599 281.819 71.8425C283.644 76.4123 284.718 81.2475 284.998 86.1603C285.077 87.1346 285.048 87.882 285.07 88.3814C285.078 88.8812 285.075 89.1382 285.075 89.1382Z" fill="black"/>
<path d="M278.23 87.4445C276.749 87.5065 275.543 87.45 275.536 87.319C275.529 87.1881 276.725 87.0141 278.204 86.9301C279.684 86.8461 280.889 86.9021 280.897 87.0561C280.905 87.2101 279.709 87.383 278.23 87.4445Z" fill="black"/>
<path d="M277.236 98.1877C275.793 97.8503 274.646 97.4729 274.675 97.3454C274.703 97.2179 275.901 97.3699 277.349 97.6853C278.797 98.0007 279.943 98.3772 279.909 98.5271C279.874 98.6771 278.678 98.5271 277.236 98.1877Z" fill="black"/>
<path d="M273.383 108.265C272.083 107.55 271.083 106.879 271.143 106.765C271.203 106.652 272.318 107.119 273.627 107.815C274.937 108.511 275.939 109.181 275.866 109.315C275.794 109.449 274.681 108.981 273.383 108.265Z" fill="black"/>
<path d="M266.968 116.939C265.907 115.904 265.119 114.99 265.211 114.894C265.303 114.799 266.248 115.549 267.325 116.568C268.401 117.586 269.188 118.501 269.081 118.612C268.975 118.723 268.028 117.973 266.968 116.939Z" fill="black"/>
<path d="M258.47 123.587C257.725 122.305 257.212 121.213 257.324 121.146C257.437 121.08 258.148 122.054 258.914 123.324C259.679 124.594 260.191 125.686 260.059 125.764C259.927 125.843 259.216 124.867 258.47 123.587Z" fill="black"/>
<path d="M248.498 127.703C248.126 126.268 247.927 125.077 248.054 125.044C248.181 125.01 248.604 126.14 248.996 127.57C249.388 129.001 249.589 130.188 249.44 130.229C249.292 130.269 248.87 129.138 248.498 127.703Z" fill="black"/>
<path d="M237.785 128.989C237.809 127.506 237.935 126.306 238.065 126.307C238.195 126.308 238.302 127.51 238.301 128.993C238.3 130.475 238.174 131.674 238.021 131.673C237.867 131.672 237.762 130.47 237.785 128.989Z" fill="black"/>
<path d="M227.117 127.369C227.538 125.948 227.983 124.826 228.109 124.863C228.235 124.9 228.013 126.086 227.613 127.512C227.214 128.939 226.77 130.062 226.622 130.018C226.474 129.975 226.695 128.789 227.116 127.369" fill="black"/>
<path d="M217.285 122.934C218.073 121.679 218.803 120.717 218.914 120.784C219.025 120.852 218.492 121.934 217.723 123.203C216.955 124.471 216.224 125.431 216.095 125.352C215.966 125.273 216.497 124.189 217.285 122.934" fill="black"/>
<path d="M208.995 116.027C210.089 115.027 211.049 114.295 211.138 114.391C211.227 114.487 210.424 115.388 209.344 116.404C208.265 117.42 207.306 118.154 207.202 118.039C207.098 117.924 207.902 117.026 208.995 116.027Z" fill="black"/>
<path d="M202.854 107.155C204.176 106.485 205.297 106.037 205.356 106.155C205.416 106.272 204.402 106.924 203.089 107.614C201.777 108.303 200.657 108.751 200.587 108.613C200.517 108.476 201.532 107.824 202.854 107.155" fill="black"/>
<path d="M199.33 96.9634C200.784 96.676 201.984 96.547 202.01 96.6755C202.037 96.8039 200.883 97.1584 199.433 97.4678C197.983 97.7772 196.784 97.9067 196.753 97.7557C196.723 97.6048 197.877 97.2509 199.33 96.9634Z" fill="black"/>
<path d="M198.664 86.1924C200.142 86.3018 201.334 86.4963 201.325 86.6273C201.317 86.7582 200.11 86.7937 198.63 86.7067C197.15 86.6198 195.96 86.4253 195.97 86.2718C195.979 86.1184 197.187 86.0834 198.664 86.1924Z" fill="black"/>
<path d="M200.905 75.6376C202.298 76.142 203.393 76.6504 203.35 76.7739C203.307 76.8973 202.135 76.6059 200.733 76.124C199.332 75.6421 198.238 75.1317 198.289 74.9868C198.34 74.8418 199.512 75.1337 200.905 75.6366" fill="black"/>
<path d="M205.905 66.0793C207.112 66.9391 208.031 67.723 207.955 67.8289C207.879 67.9349 206.83 67.3415 205.609 66.5002C204.388 65.6589 203.472 64.8751 203.559 64.7506C203.647 64.6261 204.697 65.22 205.904 66.0793" fill="black"/>
<path d="M213.28 58.2054C214.214 59.3552 214.89 60.3549 214.789 60.4394C214.688 60.5239 213.834 59.6691 212.883 58.5328C211.931 57.3966 211.256 56.3968 211.374 56.2993C211.493 56.2019 212.346 57.0552 213.28 58.2054Z" fill="black"/>
<path d="M222.493 52.5913C223.083 53.951 223.465 55.0958 223.346 55.1492C223.226 55.2027 222.634 54.1495 222.022 52.7998C221.41 51.4501 221.03 50.3053 221.172 50.2433C221.315 50.1813 221.906 51.2326 222.495 52.5928" fill="black"/>
<path d="M232.88 49.6689C233.082 51.1376 233.141 52.3428 233.012 52.3618C232.882 52.3808 232.595 51.2086 232.37 49.7434C232.146 48.2782 232.087 47.0735 232.239 47.051C232.39 47.0285 232.677 48.2007 232.88 49.6689Z" fill="black"/>
<path d="M243.671 49.6263C243.475 51.0959 243.212 52.2757 243.082 52.2572C242.952 52.2387 242.987 51.0345 243.16 49.5623C243.333 48.0901 243.596 46.9129 243.749 46.9319C243.901 46.9509 243.866 48.1576 243.671 49.6263Z" fill="black"/>
<path d="M254.075 52.4829C253.49 53.8446 252.918 54.9078 252.797 54.8568C252.677 54.8059 253.036 53.6541 253.6 52.2834C254.164 50.9127 254.736 49.8509 254.878 49.9099C255.019 49.9689 254.66 51.1217 254.075 52.4829Z" fill="black"/>
<path d="M263.328 58.0324C262.4 59.1881 261.564 60.0589 261.461 59.9775C261.359 59.896 262.011 58.8827 262.924 57.713C263.837 56.5432 264.67 55.6729 264.79 55.7684C264.91 55.8639 264.256 56.8776 263.328 58.0324Z" fill="black"/>
<path d="M270.761 65.8519C269.558 66.7177 268.519 67.3336 268.443 67.2281C268.366 67.1226 269.267 66.3203 270.457 65.436C271.647 64.5517 272.684 63.9363 272.774 64.0603C272.865 64.1843 271.964 64.9866 270.761 65.8519Z" fill="black"/>
<path d="M275.826 75.3773C274.434 75.8867 273.269 76.2006 273.223 76.0771C273.177 75.9537 274.262 75.4273 275.645 74.8939C277.029 74.3605 278.195 74.0496 278.248 74.1941C278.301 74.3385 277.218 74.8679 275.826 75.3773Z" fill="black"/>
<path d="M278.135 85.9149C276.658 86.0323 275.451 86.0218 275.439 85.8919C275.428 85.7619 276.615 85.5419 278.089 85.4035C279.563 85.265 280.771 85.274 280.784 85.4265C280.798 85.5789 279.61 85.7974 278.135 85.9149" fill="black"/>
<path d="M220.796 41.2158C220.746 41.2457 220.693 41.2703 220.637 41.2893L220.162 41.4833C219.748 41.6577 219.119 41.8682 218.339 42.2146C216.12 43.1425 213.964 44.2175 211.888 45.4324C210.568 46.1922 209.17 47.105 207.703 48.1318C206.156 49.2441 204.665 50.4335 203.237 51.6955C196.65 57.4958 191.621 64.8539 188.609 73.0978C187.951 74.8868 187.384 76.7077 186.909 78.5536C186.485 80.2932 186.142 81.9273 185.913 83.433C185.535 85.8095 185.315 88.2087 185.257 90.6144C185.217 91.4642 185.249 92.1286 185.237 92.578C185.235 92.7909 185.233 92.9599 185.231 93.0889C185.233 93.1473 185.229 93.2057 185.22 93.2633C185.208 93.2063 185.203 93.1481 185.203 93.0899C185.198 92.9604 185.191 92.7899 185.183 92.579C185.178 92.1291 185.129 91.4667 185.152 90.6129C185.171 88.1995 185.364 85.7905 185.728 83.4045C185.945 81.8914 186.277 80.2487 186.695 78.4996C187.162 76.6431 187.723 74.8118 188.377 73.0128C191.378 64.7176 196.435 57.3195 203.074 51.5111C204.512 50.2485 206.014 49.0606 207.573 47.9518C209.051 46.9281 210.461 46.0213 211.792 45.2689C213.883 44.0636 216.058 43.01 218.3 42.1161C219.087 41.7837 219.723 41.5887 220.143 41.4303L220.627 41.2638C220.681 41.2421 220.738 41.226 220.796 41.2158Z" stroke="black" stroke-miterlimit="10"/>
<path d="M238.102 37.9511C237.571 38.0621 237.033 38.1329 236.492 38.163C235.498 38.268 234.124 38.417 232.61 38.6129C231.097 38.8089 229.731 39.0163 228.742 39.1683C228.211 39.2768 227.673 39.3455 227.132 39.3738C227.644 39.1946 228.172 39.0633 228.709 38.9813C229.691 38.7814 231.058 38.5444 232.576 38.347C234.094 38.1495 235.476 38.0311 236.475 37.9741C237.016 37.9163 237.56 37.9086 238.102 37.9511Z" stroke="black" stroke-miterlimit="10"/>
<path d="M254.358 56.8979L244.146 89.0494V89.0544L244.125 89.1213V89.1263L244.12 89.1368L244.007 88.9924C243.648 87.9763 242.998 87.0888 242.136 86.4414C242.08 86.4004 242.023 86.359 241.966 86.323C241.342 85.8863 240.63 85.5909 239.88 85.4572C239.065 85.3122 238.228 85.3527 237.43 85.5756L237.399 85.4622V85.4572L237.492 85.3072L254.358 56.8979Z" stroke="black" stroke-miterlimit="10"/>
<path d="M244.119 89.1383L244.063 89.1537C244.048 89.104 244.028 89.0514 244.007 88.9948L244.119 89.1383Z" stroke="black" stroke-miterlimit="10"/>
<path d="M244.13 92.0245C243.813 93.2004 243.111 94.2362 242.136 94.9664C241.423 95.5043 240.585 95.8546 239.701 95.9851C238.817 96.1157 237.915 96.0224 237.076 95.7137C236.592 95.5417 236.137 95.2968 235.727 94.9874C235.294 94.6721 234.914 94.2893 234.603 93.8536C233.93 92.9416 233.567 91.8379 233.567 90.7043C233.567 89.5707 233.93 88.467 234.603 87.555C234.916 87.1205 235.295 86.7379 235.727 86.4213C236.138 86.1121 236.593 85.8655 237.076 85.6894C237.192 85.6446 237.311 85.6067 237.432 85.5759V85.5709C238.229 85.348 239.066 85.3075 239.881 85.4525C240.631 85.5862 241.343 85.8817 241.968 86.3183C242.024 86.3543 242.081 86.3958 242.138 86.4368C243 87.0853 243.651 87.9745 244.008 88.9922C244.029 89.0487 244.049 89.1002 244.065 89.1522C244.091 89.2346 244.111 89.3121 244.132 89.3841C244.231 89.8191 244.305 90.2596 244.353 90.7033C244.352 90.1697 244.275 89.639 244.126 89.1267V89.1217C243.737 87.8561 242.905 86.7734 241.782 86.0723C241.135 85.6707 240.411 85.4082 239.657 85.3018C238.903 85.1953 238.135 85.2471 237.402 85.454V85.459C236.426 85.7367 235.547 86.2811 234.864 87.0311C234.18 87.781 233.719 88.7067 233.533 89.7041C233.347 90.7016 233.442 91.7312 233.809 92.6773C234.175 93.6235 234.799 94.4486 235.609 95.0599C236.418 95.6713 237.383 96.0447 238.393 96.1381C239.404 96.2315 240.42 96.0413 241.328 95.5887C242.236 95.1362 243 94.4394 243.534 93.5765C244.068 92.7137 244.351 91.719 244.351 90.7043C244.303 91.1483 244.229 91.5891 244.13 92.0245Z" stroke="black" stroke-miterlimit="10"/>
<path d="M244.233 92.05C243.985 93.0787 243.447 94.0146 242.683 94.7463C241.918 95.4779 240.959 95.9745 239.921 96.177C238.942 96.3622 237.931 96.2821 236.994 95.9451C236.486 95.7697 236.008 95.5168 235.577 95.1953C235.121 94.8658 234.721 94.4657 234.391 94.01C233.682 93.055 233.299 91.8969 233.299 90.7073C233.299 89.5176 233.682 88.3595 234.391 87.4045C234.719 86.9476 235.12 86.5473 235.577 86.2192C236.006 85.8934 236.484 85.6378 236.994 85.4619C237.157 85.4003 237.324 85.3487 237.494 85.3074C238.288 85.1071 239.116 85.0825 239.921 85.2355C240.595 85.3643 241.24 85.6186 241.82 85.9853C241.975 86.0853 242.12 86.1853 242.253 86.2892C243.158 86.9888 243.819 87.955 244.144 89.0511V89.0561C244.178 89.1555 244.206 89.2571 244.227 89.3601C244.34 89.7987 244.382 90.2528 244.35 90.7048C244.302 90.2611 244.228 89.8206 244.129 89.3855C244.108 89.3136 244.088 89.2356 244.062 89.1536C244.046 89.1036 244.026 89.0506 244.005 88.9936C243.648 87.9759 242.997 87.0868 242.135 86.4382C242.078 86.3972 242.021 86.3557 241.965 86.3197C241.34 85.8831 240.628 85.5877 239.878 85.4539C239.063 85.3089 238.226 85.3494 237.429 85.5724V85.5774C237.308 85.6082 237.189 85.6461 237.073 85.6909C236.59 85.8669 236.135 86.1135 235.724 86.4227C235.292 86.7393 234.913 87.1219 234.6 87.5564C233.927 88.4685 233.564 89.5722 233.564 90.7058C233.564 91.8393 233.927 92.9431 234.6 93.8551C234.912 94.2908 235.291 94.6736 235.724 94.9888C236.134 95.2982 236.589 95.5431 237.073 95.7151C237.912 96.0238 238.815 96.1171 239.699 95.9866C240.583 95.856 241.42 95.5057 242.133 94.9678C243.108 94.2376 243.81 93.2019 244.127 92.026C244.227 91.5909 244.301 91.1504 244.349 90.7068C244.381 91.1578 244.342 91.6111 244.233 92.05Z" stroke="black" stroke-miterlimit="10"/>
</g>
</g>
<mask id="mask3_5_231" style="mask-type:luminance" maskUnits="userSpaceOnUse" x="0" y="0" width="329" height="254">
<path d="M329 0.216797H0V253.623H329V0.216797Z" fill="white"/>
</mask>
<g mask="url(#mask3_5_231)">
<mask id="mask4_5_231" style="mask-type:luminance" maskUnits="userSpaceOnUse" x="0" y="0" width="329" height="254">
<path d="M329 0.216797H0V253.623H329V0.216797Z" fill="white"/>
</mask>
<g mask="url(#mask4_5_231)">
<path d="M242.634 251.139C261.337 251.139 286.317 249.958 309.869 249.958C314.789 210.05 317.453 179.485 328.499 136.983C305.056 135.942 254.837 136.268 247.699 138.133C246.269 176.343 244.843 213.943 242.632 251.136" fill="white"/>
<path d="M242.634 251.639C242.566 251.639 242.498 251.625 242.436 251.598C242.373 251.571 242.316 251.532 242.27 251.482C242.223 251.433 242.187 251.374 242.163 251.31C242.14 251.246 242.13 251.178 242.134 251.11C244.395 213.09 245.883 173.259 247.2 138.118C247.204 138.01 247.243 137.907 247.31 137.823C247.377 137.74 247.47 137.68 247.574 137.653C254.893 135.739 305.793 135.476 328.522 136.486C328.596 136.49 328.669 136.51 328.735 136.545C328.8 136.58 328.857 136.629 328.901 136.689C328.946 136.748 328.976 136.817 328.99 136.89C329.004 136.963 329.002 137.039 328.983 137.111C319.506 173.576 316.186 201.394 312.346 233.606C311.713 238.903 311.053 244.374 310.365 250.02C310.35 250.141 310.291 250.252 310.2 250.333C310.109 250.414 309.991 250.458 309.87 250.458C297.422 250.458 284.732 250.784 272.459 251.1C261.657 251.377 251.452 251.64 242.633 251.64M248.185 138.535C246.88 173.427 245.399 212.904 243.163 250.639C251.847 250.63 261.853 250.372 272.434 250.101C284.566 249.789 297.108 249.467 309.426 249.459C310.1 243.977 310.742 238.653 311.352 233.488C315.176 201.417 318.484 173.693 327.859 137.459C305.243 136.498 256.527 136.734 248.183 138.536" fill="black"/>
<path d="M150.447 252.46C151.687 228.391 149.316 202.85 139.691 180.757C134.166 193.014 127.681 204.815 120.296 216.049C117.932 212.013 115.839 207.758 113.747 203.504C113.21 202.413 112.673 201.321 112.135 200.229C109.19 194.247 106.246 188.262 103.569 182.156C107.163 167.623 111.133 153.183 115.743 138.951C116.302 136.965 117.104 135.055 118.131 133.266C120.399 129.655 124.283 127.417 128.097 125.509C138.526 120.271 149.616 116.471 161.065 114.211C162.127 112.541 163.641 111.205 165.43 110.358C166.985 116.302 170.679 121.489 174.97 125.882C176.94 127.901 179.543 129.926 182.215 129.639C189.503 127.14 193.662 119.601 199.774 114.905C201.908 113.265 204.5 111.922 207.403 112.188C213.696 113.402 219.989 114.615 226.282 115.828C236.671 117.828 247.411 119.977 256.052 126.086C258.08 127.502 259.916 129.174 261.515 131.061C271.462 153.641 279.067 177.204 285.159 201.113C288.123 212.737 290.739 224.924 288.146 236.917C286.576 240.452 283.963 243.445 281.008 245.945C279.246 247.528 277.209 248.774 274.997 249.621C272.462 250.501 269.727 250.562 267.044 250.614C261.355 250.725 255.664 250.836 249.973 250.946L150.447 252.46Z" fill="white"/>
<path d="M150.387 214.724C143.628 219.023 138.485 225.441 135.761 232.974C135.396 233.985 135.073 235.085 135.361 236.123C135.433 236.398 135.56 236.655 135.734 236.88C135.908 237.104 136.125 237.291 136.374 237.429C136.622 237.567 136.896 237.653 137.178 237.682C137.461 237.711 137.746 237.682 138.017 237.598C137.896 238.178 137.998 238.783 138.302 239.292C138.607 239.801 139.091 240.177 139.66 240.345C140.228 240.514 140.839 240.462 141.372 240.201C141.904 239.94 142.319 239.488 142.533 238.935C142.724 239.258 143.015 239.509 143.362 239.65C143.709 239.791 144.093 239.813 144.455 239.714C145.173 239.497 145.833 239.121 146.386 238.615C147.916 237.405 149.445 236.196 150.974 234.989C152.949 233.427 154.942 231.858 157.201 230.746C158.431 230.14 159.743 229.67 160.85 228.861C161.988 228.016 162.844 226.848 163.308 225.509C163.772 224.17 163.821 222.722 163.449 221.354C162.721 218.938 160.695 217.157 158.65 215.674C157.587 214.903 156.44 214.154 155.137 213.998C153.226 213.771 151.367 214.862 150.386 214.725" fill="white"/>
<path d="M137.429 253.089C137.326 253.089 137.226 253.057 137.142 252.999C137.058 252.94 136.994 252.857 136.959 252.761L133.973 244.587C133.946 244.512 133.937 244.432 133.947 244.353C133.957 244.275 133.986 244.199 134.03 244.134C134.075 244.068 134.135 244.014 134.205 243.976C134.275 243.938 134.353 243.918 134.432 243.916L170.703 242.816C170.836 242.815 170.964 242.864 171.061 242.955C171.156 243.047 171.211 243.173 171.215 243.305L171.379 251.881C171.38 251.947 171.369 252.013 171.345 252.074C171.32 252.135 171.284 252.191 171.239 252.239C171.193 252.286 171.138 252.324 171.078 252.35C171.017 252.376 170.952 252.39 170.886 252.391L137.436 253.091L137.429 253.089ZM135.152 244.899L137.776 252.085L170.369 251.399L170.224 243.826L135.152 244.899Z" fill="black"/>
<path d="M163.434 86.2972C165.124 97.602 165.834 109.032 165.557 120.459C165.454 121.409 165.587 122.37 165.942 123.258C166.454 124.098 167.19 124.778 168.067 125.223C173.835 128.722 180.948 130.322 187.474 128.606C193.999 126.89 199.683 121.535 200.288 114.293C197.533 105.013 192.928 92.0714 189.369 77.1837C181.377 80.7239 173.009 83.4153 163.433 86.2952" fill="white"/>
<path d="M181.987 129.799C176.972 129.732 172.069 128.298 167.808 125.652C166.849 125.162 166.048 124.411 165.496 123.486C165.101 122.525 164.95 121.48 165.057 120.447C165.331 109.048 164.623 97.6476 162.94 86.3708C162.922 86.252 162.948 86.1309 163.012 86.0295C163.076 85.928 163.175 85.8531 163.29 85.8184C173.588 82.7191 181.512 80.1197 189.166 76.7299C189.233 76.7001 189.306 76.6854 189.379 76.6869C189.452 76.6883 189.525 76.7059 189.59 76.7384C189.656 76.7709 189.714 76.8175 189.76 76.8749C189.805 76.9322 189.838 76.999 189.855 77.0703C192.373 87.602 195.468 97.3274 197.957 105.142C198.989 108.383 199.963 111.444 200.768 114.154C200.785 114.213 200.792 114.275 200.786 114.337C200.209 121.243 194.909 127.171 187.601 129.09C185.768 129.567 183.881 129.805 181.987 129.799M163.991 86.6517C165.637 97.8458 166.327 109.16 166.055 120.471C165.959 121.34 166.073 122.22 166.387 123.036C166.861 123.788 167.53 124.398 168.324 124.799C174.408 128.489 181.341 129.703 187.346 128.125C193.064 126.625 199.111 121.783 199.781 114.347C198.986 111.67 198.022 108.645 197.003 105.445C194.557 97.7588 191.523 88.2279 189.022 77.8842C181.593 81.1335 173.882 83.6704 163.991 86.6517Z" fill="black"/>
<path d="M259.954 248.307C247.33 248.307 233.61 248.002 215.399 245.508C205.143 244.104 195.456 242.778 187.255 241.97C187.189 241.964 187.126 241.944 187.068 241.913C187.01 241.882 186.959 241.84 186.917 241.789C186.876 241.738 186.845 241.68 186.826 241.617C186.807 241.554 186.801 241.488 186.807 241.423C186.814 241.357 186.833 241.294 186.864 241.236C186.895 241.178 186.937 241.127 186.988 241.085C187.039 241.044 187.098 241.013 187.16 240.994C187.223 240.975 187.289 240.968 187.355 240.975C195.571 241.785 205.267 243.113 215.532 244.518C241.419 248.061 270.761 252.079 277.961 247.467C283.988 243.606 288.116 237.815 288.478 232.714C288.894 226.861 287.748 213.394 286.619 207.988C281.933 185.526 265.311 136.533 259.206 129.659C253.364 123.08 244.4 120.404 236.457 118.411C224.639 115.45 212.643 113.247 200.543 111.817C198.084 119.744 192.993 126.593 186.113 131.234C184.409 132.388 182.37 131.399 180.572 130.527C180.232 130.362 179.897 130.2 179.575 130.057C179.14 129.937 178.698 129.845 178.251 129.783C175.22 129.253 168.917 128.153 165.856 123.505C164.219 121.021 163.771 117.873 164.523 114.137C153.562 115.941 142.875 119.136 132.722 123.645C128.284 125.6 123.312 128.155 120.068 132.272C117.152 135.975 115.772 140.713 114.554 144.892C107.605 168.742 109.614 157.88 103.872 182.045C103.858 182.111 103.832 182.173 103.794 182.228C103.756 182.284 103.708 182.331 103.651 182.367C103.595 182.403 103.531 182.428 103.465 182.439C103.399 182.45 103.332 182.448 103.266 182.432C103.201 182.417 103.14 182.389 103.086 182.349C103.032 182.309 102.986 182.259 102.952 182.201C102.918 182.144 102.895 182.08 102.886 182.013C102.877 181.947 102.882 181.879 102.899 181.815C108.645 157.633 106.641 168.478 113.597 144.613C114.84 140.346 116.249 135.509 119.286 131.654C122.663 127.364 127.771 124.736 132.322 122.731C142.777 118.087 153.794 114.827 165.093 113.033C165.174 113.02 165.257 113.027 165.334 113.054C165.412 113.081 165.482 113.126 165.538 113.186C165.593 113.247 165.633 113.32 165.654 113.399C165.675 113.478 165.676 113.562 165.657 113.642C164.761 117.417 165.108 120.55 166.693 122.956C169.516 127.243 175.533 128.293 178.425 128.798C178.954 128.863 179.475 128.979 179.982 129.143C180.315 129.29 180.659 129.457 181.01 129.628C182.642 130.419 184.328 131.237 185.556 130.407C192.362 125.81 197.364 118.997 199.71 111.126C199.743 111.014 199.816 110.917 199.914 110.853C200.012 110.789 200.129 110.762 200.245 110.776C212.529 112.208 224.706 114.435 236.702 117.441C244.79 119.469 253.925 122.203 259.955 128.994C266.546 136.416 283.304 187.193 287.599 207.783C288.739 213.246 289.898 226.863 289.476 232.784C289.093 238.188 284.786 244.281 278.503 248.307C275.996 249.913 271.179 250.552 264.86 250.552" fill="black"/>
<path d="M180.532 137.937C177.369 153.642 174.404 169.408 171.638 185.235C171.169 187.916 170.704 190.656 170.943 193.383C171.28 197.227 172.969 200.642 174.617 203.906C176.628 207.893 178.64 211.88 181.347 215.835C184.595 208.462 187.452 200.924 189.907 193.251C190.74 175.725 185.024 158.683 184.563 141.135C184.533 140.049 184.513 138.908 184.077 137.971C183.642 137.035 182.628 136.427 180.532 137.936" fill="#0086D5"/>
<path d="M181.348 216.336C181.267 216.336 181.187 216.316 181.115 216.277C181.043 216.239 180.982 216.184 180.936 216.117C178.211 212.137 176.158 208.069 174.172 204.135C172.59 200.998 170.797 197.444 170.446 193.428C170.196 190.583 170.702 187.697 171.146 185.15C173.9 169.391 176.894 153.474 180.044 137.838C180.069 137.714 180.14 137.605 180.244 137.532C181.406 136.693 182.405 136.376 183.218 136.587C183.512 136.67 183.783 136.819 184.011 137.023C184.239 137.226 184.418 137.479 184.534 137.761C184.932 138.81 185.112 139.929 185.064 141.05V141.122C185.27 148.915 186.537 156.748 187.763 164.322C189.292 173.758 190.871 183.515 190.408 193.275C190.406 193.319 190.398 193.362 190.385 193.403C187.923 201.093 185.059 208.649 181.806 216.039C181.77 216.121 181.713 216.191 181.641 216.243C181.568 216.295 181.484 216.327 181.395 216.336C181.379 216.336 181.363 216.336 181.348 216.336ZM180.983 138.231C177.85 153.795 174.872 169.637 172.13 185.32C171.696 187.808 171.203 190.627 171.441 193.34C171.777 197.166 173.522 200.628 175.064 203.681C176.905 207.508 178.972 211.222 181.254 214.802C184.336 207.731 187.058 200.509 189.412 193.163C189.862 183.527 188.293 173.845 186.777 164.483C185.545 156.875 184.27 149.009 184.064 141.148V141.076C184.109 140.092 183.961 139.11 183.627 138.183C183.572 138.035 183.483 137.901 183.369 137.792C183.254 137.683 183.116 137.601 182.965 137.552C182.631 137.466 182.023 137.519 180.986 138.231" fill="black"/>
<path d="M187.306 241.974C187.187 241.974 187.072 241.931 186.982 241.854C186.891 241.776 186.832 241.669 186.813 241.551C186.795 241.433 186.819 241.313 186.881 241.212C186.944 241.11 187.041 241.035 187.154 240.998C191.193 239.704 192.824 236.458 192.611 230.141C192.154 216.656 190.106 214.858 189.246 214.711C189.125 214.69 189.016 214.625 188.939 214.529C188.863 214.432 188.825 214.311 188.833 214.188C188.841 214.065 188.893 213.949 188.981 213.863C189.069 213.776 189.185 213.725 189.308 213.72L191.734 213.612C212.433 212.698 235.856 211.663 250.344 209.885C247.894 202.231 245.557 195.239 243.293 188.467C240.935 181.419 238.497 174.126 235.957 166.151C235.936 166.088 235.928 166.022 235.933 165.956C235.937 165.889 235.955 165.825 235.985 165.766C236.015 165.706 236.057 165.654 236.107 165.611C236.158 165.568 236.217 165.535 236.28 165.515C236.343 165.495 236.41 165.488 236.476 165.494C236.542 165.5 236.606 165.519 236.665 165.55C236.723 165.581 236.775 165.623 236.817 165.675C236.86 165.726 236.891 165.785 236.91 165.849C239.446 173.816 241.884 181.103 244.24 188.151C246.562 195.091 248.963 202.268 251.479 210.154C251.502 210.224 251.509 210.298 251.5 210.371C251.49 210.444 251.465 210.514 251.425 210.576C251.386 210.638 251.333 210.691 251.271 210.73C251.209 210.769 251.139 210.795 251.066 210.804C236.59 212.634 212.783 213.685 191.779 214.612L190.875 214.653C191.98 216.093 193.264 219.878 193.61 230.11C193.764 234.659 193.204 240.111 187.461 241.952C187.412 241.969 187.361 241.977 187.309 241.977" fill="black"/>
<path d="M34.7957 253.622C34.7007 253.622 34.6077 253.595 34.5276 253.544C34.4475 253.493 34.3836 253.421 34.3433 253.335L0.049859 179.882C0.0144045 179.806 -0.00138583 179.722 0.00394009 179.639C0.00926601 179.555 0.0355372 179.474 0.0803377 179.403C0.125138 179.332 0.18703 179.274 0.26032 179.233C0.333611 179.192 0.415948 179.171 0.49976 179.17L102.621 179.73C102.714 179.731 102.806 179.757 102.884 179.807C102.963 179.856 103.027 179.927 103.068 180.011L138.269 252.305C138.306 252.381 138.323 252.465 138.319 252.55C138.315 252.634 138.289 252.716 138.244 252.788C138.2 252.859 138.138 252.919 138.064 252.96C137.99 253.001 137.907 253.023 137.823 253.024L34.7957 253.624V253.622ZM1.28659 180.174L35.1131 252.621L137.024 252.029L102.308 180.728L1.28659 180.174Z" fill="black"/>
<path d="M65.0942 209.128C62.1948 208.844 59.0275 209.619 57.8458 212.281C56.664 214.944 57.5698 218.28 59.7219 220.244C61.8739 222.207 65.0542 222.84 67.8956 222.2C69.4302 221.855 70.9514 221.111 71.8347 219.808C72.4266 218.882 72.7329 217.803 72.7155 216.705C72.74 213.119 71.1054 209.717 65.0932 209.128" fill="white"/>
<path d="M65.721 222.943C63.3941 222.976 61.1373 222.147 59.3859 220.614C57.0009 218.438 56.1616 214.848 57.3903 212.08C58.5101 209.554 61.4074 208.267 65.1431 208.63C71.8566 209.289 73.2383 213.387 73.2153 216.708C73.2355 217.906 72.8992 219.083 72.249 220.089C71.1623 221.693 69.3422 222.389 68.006 222.689C67.2558 222.856 66.4896 222.942 65.721 222.943ZM64.0034 209.574C62.2737 209.574 59.4139 209.979 58.3046 212.483C57.2458 214.87 57.9837 217.978 60.0602 219.874C61.1104 220.77 62.3581 221.403 63.7008 221.723C65.0435 222.043 66.4429 222.039 67.784 221.713C69.2266 221.466 70.524 220.687 71.4192 219.529C71.9535 218.684 72.2296 217.701 72.2135 216.702C72.243 212.476 69.8296 210.096 65.0426 209.626C64.7962 209.602 64.4338 209.576 64.0009 209.576" fill="black"/>
<path d="M184.54 129.905C183.15 128.894 181.276 128.979 179.775 129.601C177.564 130.516 175.698 131.814 175.285 134.171C175.18 134.774 176.343 137.291 176.942 138.199C177.651 139.277 179.45 141.242 181.008 141.369C182.338 141.477 183.575 140.689 184.57 139.801C186.37 138.193 187.842 135.807 187.27 133.462C186.924 132.055 185.92 130.906 184.542 129.905" fill="#0086D5"/>
<path d="M181.263 141.878C181.163 141.878 181.067 141.875 180.968 141.867C179.053 141.711 177.112 139.365 176.525 138.474C176.049 137.751 174.64 134.967 174.795 134.084C175.295 131.222 177.768 129.891 179.584 129.139C181.482 128.354 183.444 128.489 184.833 129.5C186.452 130.677 187.407 131.935 187.753 133.342C188.292 135.545 187.227 138.099 184.903 140.173C183.62 141.319 182.426 141.878 181.263 141.878ZM182.036 129.641C181.326 129.647 180.623 129.79 179.966 130.062C177.391 131.128 176.099 132.423 175.778 134.256C175.743 134.682 176.718 136.949 177.36 137.923C178.102 139.051 179.788 140.767 181.05 140.87C182.022 140.954 183.061 140.478 184.237 139.428C185.004 138.744 187.451 136.303 186.783 133.579C186.496 132.41 185.667 131.339 184.247 130.307C183.6 129.855 182.826 129.621 182.036 129.64" fill="black"/>
<path d="M153.968 242.068C153.434 242.047 152.924 241.833 152.536 241.464C151.467 240.56 152.201 238.82 152.441 238.248C152.851 237.372 153.412 236.574 154.098 235.892C156.278 233.562 158.811 231.588 161.604 230.044C160.005 229.725 158.212 230.444 156.89 231.178C154.405 232.566 152.186 234.474 150.042 236.319C148.956 237.254 147.832 238.219 146.681 239.114C146.14 239.581 145.514 239.94 144.838 240.172C144.445 240.302 144.024 240.326 143.618 240.242C143.213 240.158 142.837 239.968 142.528 239.693C142.116 239.253 141.879 238.679 141.86 238.077C141.749 236.419 142.752 234.944 143.516 233.978C148.09 228.196 152.91 224.976 158.254 224.137C158.382 224.122 158.51 224.158 158.613 224.236C158.715 224.314 158.784 224.429 158.804 224.556C158.824 224.683 158.794 224.814 158.72 224.919C158.647 225.025 158.535 225.098 158.409 225.124C153.326 225.924 148.711 229.023 144.3 234.598C143.639 235.435 142.769 236.697 142.858 238.012C142.861 238.369 142.992 238.713 143.227 238.981C143.412 239.131 143.631 239.231 143.865 239.271C144.099 239.312 144.339 239.291 144.563 239.212C145.116 239.014 145.626 238.713 146.067 238.326C147.199 237.448 148.313 236.489 149.39 235.562C151.573 233.685 153.831 231.743 156.404 230.307C158.224 229.291 160.856 228.33 163.062 229.517C163.142 229.56 163.209 229.624 163.255 229.702C163.301 229.781 163.325 229.87 163.324 229.961C163.324 230.052 163.298 230.14 163.251 230.218C163.203 230.295 163.136 230.358 163.055 230.4C159.977 231.967 157.194 234.056 154.831 236.575C154.227 237.174 153.731 237.872 153.364 238.639C152.914 239.709 152.85 240.423 153.183 240.703C153.933 241.34 154.366 241.068 155.194 240.447L155.251 240.403C158.336 237.792 161.683 235.505 165.237 233.579C166.386 232.961 167.871 232.335 169.186 232.975C170.78 233.756 175.357 235.512 183.397 235.009C186.484 234.84 189.576 235.248 192.514 236.211C192.639 236.253 192.742 236.342 192.801 236.459C192.86 236.576 192.871 236.711 192.832 236.836C192.792 236.961 192.705 237.066 192.589 237.127C192.473 237.188 192.338 237.202 192.212 237.164C189.391 236.239 186.423 235.846 183.459 236.006C175.182 236.525 170.412 234.689 168.747 233.874C167.847 233.433 166.707 233.924 165.71 234.458C162.209 236.357 158.912 238.611 155.873 241.186L155.795 241.246C155.293 241.711 154.653 242.001 153.971 242.071" fill="black"/>
<path d="M139.957 241.26C139.745 241.261 139.534 241.229 139.331 241.166C138.159 240.798 137.655 239.496 137.573 238.401C137.377 235.757 138.789 233.302 139.867 231.683C143.506 226.225 147.265 222.782 151.035 221.449C151.16 221.405 151.298 221.412 151.417 221.469C151.537 221.527 151.629 221.629 151.673 221.754C151.717 221.879 151.71 222.016 151.653 222.136C151.596 222.256 151.493 222.348 151.368 222.392C147.804 223.651 144.214 226.963 140.698 232.24C139.701 233.734 138.398 235.992 138.57 238.328C138.625 239.062 138.935 239.996 139.631 240.214C139.846 240.265 140.07 240.268 140.286 240.223C140.502 240.178 140.706 240.087 140.884 239.956C141.317 239.637 141.699 239.254 142.015 238.819C142.055 238.765 142.106 238.72 142.164 238.686C142.222 238.653 142.287 238.631 142.354 238.623C142.42 238.614 142.488 238.62 142.553 238.638C142.617 238.657 142.678 238.688 142.73 238.73C142.782 238.773 142.825 238.825 142.857 238.885C142.888 238.944 142.908 239.01 142.913 239.077C142.919 239.144 142.911 239.211 142.89 239.275C142.869 239.339 142.835 239.398 142.791 239.449C142.411 239.965 141.953 240.418 141.433 240.792C140.997 241.089 140.484 241.253 139.957 241.263" fill="black"/>
<path d="M136.859 238.3C136.247 238.297 135.651 238.107 135.15 237.756C133.576 236.657 135.383 230.675 137.393 227.355C141.452 220.653 146.635 215.818 152.38 213.37C155.325 211.397 168.335 215.359 173.815 217.161C175.454 217.747 177.167 218.099 178.905 218.205C183.711 218.355 189.902 218.439 191.525 218.185C191.656 218.165 191.79 218.197 191.897 218.275C192.004 218.353 192.076 218.471 192.096 218.602C192.117 218.733 192.085 218.867 192.006 218.974C191.928 219.081 191.811 219.153 191.68 219.173C189.499 219.512 180.63 219.257 178.873 219.203C177.041 219.095 175.233 218.727 173.504 218.112C164.618 215.189 154.805 212.852 152.915 214.213C152.884 214.235 152.851 214.253 152.815 214.268C147.324 216.594 142.15 221.425 138.245 227.871C135.996 231.58 135.082 236.49 135.722 236.937C135.996 237.14 136.322 237.262 136.662 237.29C137.002 237.318 137.343 237.25 137.647 237.095C137.703 237.06 137.766 237.036 137.832 237.026C137.897 237.015 137.965 237.018 138.029 237.033C138.094 237.049 138.155 237.077 138.209 237.117C138.262 237.156 138.307 237.206 138.341 237.263C138.375 237.321 138.398 237.384 138.407 237.45C138.416 237.516 138.412 237.583 138.395 237.647C138.378 237.712 138.348 237.772 138.307 237.825C138.267 237.877 138.216 237.921 138.158 237.954C137.764 238.184 137.315 238.304 136.858 238.3" fill="black"/>
<path d="M165.529 109.808C168.229 116.431 174.028 125.6 179.922 129.138C176.715 131.943 172.689 136.357 165.942 141.378C163.567 129.48 161.101 123.82 159.67 114.522C161.217 113.372 163.603 110.965 165.529 109.808Z" fill="white"/>
<path d="M165.942 141.878C165.827 141.878 165.715 141.838 165.625 141.766C165.536 141.693 165.475 141.591 165.451 141.478C164.344 135.929 163.196 131.664 162.182 127.9C160.919 123.53 159.915 119.089 159.176 114.601C159.163 114.511 159.173 114.419 159.208 114.334C159.242 114.25 159.299 114.177 159.371 114.122C159.947 113.695 160.656 113.075 161.406 112.423C162.611 111.307 163.904 110.291 165.273 109.383C165.334 109.346 165.403 109.322 165.475 109.314C165.547 109.307 165.619 109.314 165.687 109.337C165.756 109.36 165.818 109.397 165.871 109.446C165.924 109.495 165.965 109.555 165.992 109.622C168.83 116.581 174.615 125.373 180.18 128.713C180.248 128.754 180.304 128.81 180.346 128.877C180.388 128.943 180.413 129.019 180.42 129.097C180.427 129.175 180.416 129.254 180.386 129.327C180.357 129.4 180.311 129.465 180.252 129.517C179.313 130.338 178.318 131.286 177.163 132.383C173.728 135.746 170.079 138.885 166.24 141.781C166.154 141.845 166.049 141.881 165.94 141.881M160.21 114.74C160.943 119.091 161.924 123.397 163.148 127.637C164.117 131.236 165.21 135.298 166.275 140.501C169.847 137.756 173.252 134.801 176.473 131.653C177.433 130.739 178.286 129.928 179.092 129.203C173.67 125.617 168.172 117.328 165.296 110.548C164.17 111.36 163.09 112.236 162.063 113.169C161.397 113.751 160.763 114.305 160.209 114.737" fill="black"/>
<path d="M183.947 129.107C187.309 133.342 190.671 137.579 194.717 141.927C199.611 132.371 204.561 122.518 206.789 112.016C204.694 111.044 200.14 108.034 198.044 107.063C198.653 109.295 199.894 111.312 199.598 112.016C199.408 112.465 189.189 124.185 183.947 129.107Z" fill="white"/>
<path d="M194.716 142.427C194.647 142.427 194.579 142.413 194.516 142.386C194.453 142.358 194.397 142.318 194.35 142.267C190.287 137.901 186.865 133.589 183.553 129.42C183.475 129.322 183.437 129.198 183.446 129.073C183.455 128.948 183.511 128.831 183.602 128.745C188.841 123.828 198.539 112.684 199.141 111.807C199.201 111.537 198.806 110.571 198.517 109.862C198.144 108.994 197.824 108.104 197.559 107.197C197.533 107.104 197.535 107.006 197.563 106.914C197.591 106.823 197.645 106.741 197.719 106.679C197.792 106.617 197.882 106.578 197.977 106.566C198.072 106.553 198.169 106.569 198.256 106.61C199.327 107.107 201.029 108.125 202.674 109.11C204.298 110.082 205.977 111.087 207 111.562C207.103 111.609 207.187 111.69 207.238 111.791C207.288 111.893 207.303 112.008 207.28 112.119C204.969 123.009 199.759 133.18 195.162 142.154C195.126 142.225 195.073 142.287 195.007 142.333C194.942 142.38 194.866 142.41 194.787 142.421C194.764 142.424 194.741 142.426 194.718 142.426M184.624 129.154C187.701 133.03 190.887 137.027 194.6 141.062C199.03 132.407 203.952 122.657 206.22 112.294C205.148 111.757 203.633 110.85 202.161 109.968C201.014 109.281 199.839 108.577 198.888 108.057C199.068 108.557 199.264 109.035 199.445 109.481C199.968 110.763 200.315 111.609 200.06 112.21C199.795 112.835 189.862 124.151 184.624 129.156" fill="black"/>
<path d="M149.314 216.02C149.193 216.02 149.075 215.976 148.984 215.896C148.893 215.816 148.834 215.705 148.819 215.585C146.589 198.404 140.309 180.409 131.593 166.217C131.554 166.161 131.527 166.098 131.513 166.031C131.499 165.964 131.499 165.895 131.513 165.829C131.527 165.762 131.554 165.699 131.593 165.643C131.633 165.587 131.683 165.54 131.741 165.504C131.799 165.469 131.863 165.445 131.931 165.435C131.998 165.425 132.067 165.43 132.133 165.447C132.198 165.465 132.26 165.496 132.313 165.538C132.367 165.58 132.411 165.633 132.443 165.693C141.232 180.002 147.56 198.14 149.809 215.457C149.817 215.522 149.813 215.588 149.796 215.651C149.778 215.715 149.749 215.774 149.709 215.826C149.669 215.878 149.619 215.922 149.562 215.954C149.505 215.987 149.442 216.008 149.377 216.017C149.355 216.019 149.334 216.02 149.312 216.02" fill="black"/>
<path d="M120.23 216.897C120.14 216.897 120.052 216.873 119.975 216.827C119.898 216.781 119.834 216.715 119.791 216.636C119.748 216.557 119.727 216.468 119.731 216.379C119.734 216.289 119.762 216.202 119.81 216.126C126.154 206.297 134.087 193.361 139.168 180.478C139.19 180.414 139.225 180.356 139.271 180.307C139.316 180.257 139.371 180.218 139.432 180.19C139.493 180.162 139.559 180.147 139.626 180.145C139.693 180.143 139.76 180.155 139.822 180.18C139.885 180.204 139.941 180.241 139.989 180.288C140.037 180.335 140.075 180.391 140.101 180.453C140.126 180.515 140.139 180.582 140.139 180.649C140.138 180.716 140.124 180.782 140.098 180.843C134.984 193.81 127.019 206.8 120.652 216.669C120.607 216.739 120.544 216.797 120.471 216.837C120.397 216.877 120.315 216.897 120.231 216.897" fill="black"/>
<path d="M150.447 243.743H150.442C150.376 243.742 150.311 243.729 150.251 243.703C150.19 243.677 150.135 243.64 150.089 243.593C150.043 243.546 150.007 243.491 149.983 243.43C149.958 243.369 149.946 243.303 149.946 243.238L150.026 235.265C150.027 235.133 150.08 235.007 150.174 234.914C150.268 234.821 150.394 234.769 150.526 234.769H150.531C150.596 234.77 150.661 234.783 150.722 234.809C150.782 234.835 150.837 234.872 150.883 234.919C150.929 234.966 150.965 235.021 150.99 235.082C151.015 235.143 151.027 235.208 151.026 235.274L150.947 243.247C150.946 243.379 150.892 243.505 150.799 243.598C150.705 243.691 150.579 243.743 150.447 243.743Z" fill="black"/>
<path d="M199.468 60.0948C199.428 60.0947 199.389 60.0899 199.351 60.0803C199.222 60.0491 199.111 59.9681 199.042 59.8551C198.973 59.742 198.951 59.6062 198.982 59.4774C199.482 57.4109 199.704 56.2956 200.11 54.272C200.121 54.206 200.146 54.1429 200.182 54.0864C200.218 54.0299 200.265 53.9812 200.32 53.9432C200.375 53.9052 200.437 53.8787 200.503 53.8652C200.568 53.8517 200.636 53.8516 200.702 53.8647C200.767 53.8779 200.83 53.9041 200.885 53.9419C200.94 53.9796 200.988 54.028 201.024 54.0844C201.06 54.1407 201.085 54.2037 201.096 54.2697C201.107 54.3357 201.105 54.4033 201.09 54.4685C200.681 56.5046 200.457 57.6268 199.953 59.7128C199.927 59.8217 199.865 59.9185 199.777 59.9877C199.689 60.057 199.58 60.0947 199.468 60.0948Z" fill="black"/>
<path d="M250.605 210.847C250.473 210.85 250.345 210.8 250.249 210.708C250.153 210.617 250.098 210.491 250.095 210.358C250.092 210.226 250.142 210.097 250.234 210.002C250.326 209.906 250.452 209.85 250.584 209.848C254.084 209.698 257.633 209.605 261.137 209.562H261.142C261.274 209.561 261.402 209.613 261.496 209.707C261.59 209.8 261.644 209.927 261.644 210.059C261.645 210.192 261.593 210.319 261.5 210.414C261.407 210.508 261.28 210.561 261.148 210.562C257.655 210.605 254.116 210.7 250.627 210.847H250.605" fill="black"/>
<path d="M281.447 168.79C281.382 168.792 281.316 168.781 281.255 168.758C281.193 168.735 281.137 168.699 281.089 168.654C281.042 168.609 281.003 168.555 280.976 168.496C280.949 168.436 280.934 168.371 280.932 168.305C280.93 168.24 280.941 168.174 280.964 168.113C280.988 168.052 281.023 167.995 281.068 167.947C281.113 167.9 281.167 167.861 281.227 167.834C281.287 167.807 281.351 167.792 281.417 167.79C291.988 167.144 302.712 166.951 313.297 167.216C313.363 167.218 313.428 167.232 313.488 167.259C313.548 167.285 313.602 167.323 313.647 167.371C313.693 167.419 313.728 167.475 313.752 167.536C313.775 167.597 313.787 167.662 313.785 167.728C313.783 167.794 313.769 167.858 313.742 167.918C313.716 167.978 313.677 168.033 313.63 168.078C313.582 168.123 313.526 168.159 313.465 168.182C313.404 168.206 313.339 168.217 313.273 168.216C302.716 167.951 292.019 168.144 281.48 168.788H281.449" fill="black"/>
<path d="M285.567 178.526C285.434 178.528 285.306 178.476 285.212 178.384C285.117 178.291 285.063 178.164 285.062 178.032C285.06 177.899 285.112 177.771 285.205 177.677C285.297 177.582 285.424 177.528 285.557 177.527L308.26 177.086C308.325 177.085 308.391 177.097 308.452 177.121C308.513 177.145 308.569 177.18 308.616 177.226C308.663 177.271 308.701 177.326 308.728 177.386C308.754 177.446 308.768 177.511 308.769 177.576C308.771 177.642 308.759 177.707 308.735 177.768C308.711 177.83 308.675 177.885 308.63 177.933C308.584 177.98 308.53 178.018 308.47 178.044C308.41 178.071 308.345 178.085 308.279 178.086L285.576 178.525L285.567 178.526Z" fill="black"/>
<path d="M297.365 220.609C297.299 220.61 297.234 220.598 297.173 220.575C297.112 220.551 297.056 220.515 297.008 220.47C296.961 220.424 296.923 220.37 296.897 220.31C296.87 220.249 296.856 220.185 296.855 220.119C296.853 220.053 296.865 219.988 296.889 219.927C296.913 219.866 296.948 219.81 296.994 219.763C297.039 219.715 297.094 219.677 297.154 219.651C297.214 219.625 297.279 219.61 297.344 219.609L309.036 219.105C309.102 219.101 309.168 219.111 309.23 219.133C309.292 219.155 309.349 219.19 309.398 219.234C309.446 219.279 309.485 219.333 309.513 219.393C309.54 219.453 309.555 219.518 309.557 219.583C309.563 219.716 309.516 219.845 309.426 219.942C309.337 220.04 309.213 220.098 309.08 220.104L297.387 220.608H297.365" fill="black"/>
<path d="M209.658 127.702C209.621 127.702 209.584 127.698 209.548 127.69C209.419 127.661 209.307 127.582 209.236 127.47C209.165 127.358 209.141 127.223 209.17 127.093C209.816 124.212 210.352 121.27 210.762 118.345C210.78 118.214 210.85 118.095 210.956 118.015C211.062 117.935 211.195 117.901 211.327 117.919C211.458 117.938 211.577 118.008 211.657 118.114C211.737 118.22 211.771 118.353 211.753 118.484C211.339 121.434 210.797 124.403 210.146 127.31C210.121 127.421 210.059 127.52 209.971 127.591C209.882 127.662 209.772 127.701 209.658 127.701" fill="black"/>
<path d="M215.839 123.367C215.825 123.367 215.809 123.367 215.794 123.367C215.662 123.355 215.541 123.291 215.456 123.189C215.371 123.088 215.33 122.956 215.342 122.824L215.805 117.691C215.821 117.562 215.886 117.444 215.987 117.362C216.088 117.28 216.217 117.241 216.347 117.252C216.477 117.264 216.597 117.326 216.681 117.425C216.766 117.524 216.809 117.651 216.801 117.781L216.337 122.915C216.326 123.039 216.268 123.155 216.176 123.239C216.083 123.324 215.963 123.37 215.837 123.37" fill="black"/>
<path d="M186.615 219.319C186.598 219.319 186.579 219.319 186.565 219.319C186.5 219.313 186.436 219.293 186.378 219.262C186.321 219.23 186.27 219.188 186.228 219.137C186.187 219.086 186.156 219.027 186.137 218.964C186.119 218.901 186.113 218.835 186.119 218.769C186.186 218.129 186.296 217.493 186.447 216.866C186.592 216.155 186.875 215.479 187.282 214.877C187.513 214.543 187.816 214.266 188.169 214.066C188.522 213.866 188.915 213.748 189.32 213.721H189.333C189.398 213.72 189.464 213.732 189.525 213.756C189.585 213.781 189.641 213.817 189.688 213.863C189.735 213.909 189.772 213.963 189.798 214.024C189.824 214.084 189.838 214.149 189.839 214.215C189.839 214.28 189.827 214.345 189.803 214.406C189.779 214.467 189.742 214.523 189.696 214.57C189.651 214.617 189.596 214.654 189.536 214.68C189.475 214.706 189.41 214.72 189.345 214.72C189.092 214.744 188.848 214.823 188.63 214.953C188.412 215.082 188.225 215.259 188.085 215.47C187.757 215.965 187.531 216.519 187.417 217.101C187.277 217.685 187.175 218.277 187.112 218.874C187.1 218.997 187.042 219.111 186.951 219.194C186.859 219.277 186.74 219.324 186.616 219.324" fill="black"/>
<path d="M187.162 241.825C186.935 241.817 186.713 241.758 186.512 241.653C186.31 241.548 186.135 241.4 185.999 241.218C185.779 240.92 185.618 240.584 185.523 240.226C185.077 238.782 184.953 237.258 185.159 235.761C185.179 235.631 185.249 235.513 185.354 235.433C185.459 235.354 185.592 235.319 185.723 235.335C185.854 235.354 185.972 235.423 186.052 235.529C186.132 235.635 186.167 235.768 186.148 235.899C185.963 237.25 186.075 238.626 186.476 239.929C186.538 240.168 186.641 240.394 186.781 240.597C186.826 240.66 186.883 240.712 186.95 240.752C187.016 240.791 187.09 240.816 187.167 240.825C187.299 240.824 187.426 240.875 187.521 240.966C187.616 241.058 187.672 241.182 187.677 241.314C187.678 241.38 187.666 241.445 187.642 241.506C187.618 241.568 187.583 241.623 187.537 241.671C187.492 241.718 187.437 241.756 187.377 241.782C187.317 241.809 187.252 241.823 187.186 241.824L187.162 241.825Z" fill="black"/>
<path d="M204.238 24.6939C204.525 34.2494 204.27 43.8134 203.476 53.3401C202.973 59.2666 201.704 65.103 199.701 70.7033C198.775 73.2382 197.934 74.5399 195.471 76.271C194.91 73.9715 192.283 73.2482 191.498 71.0012C190.531 68.2383 191.913 65.4079 189.754 63.1924C185.722 59.1041 182.566 54.2366 180.48 48.8876C178.836 44.6045 177.976 39.943 179.339 35.4755C180.12 33.0443 181.506 30.8511 183.366 29.1009C185.226 27.3508 187.499 26.1009 189.973 25.4682C194.042 24.4554 200.545 22.6663 204.238 24.6939Z" fill="black"/>
<path d="M195.61 76.7516C195.546 76.7704 195.478 76.7759 195.411 76.7678C195.344 76.7596 195.279 76.7381 195.221 76.7044C195.163 76.6707 195.112 76.6255 195.071 76.5716C195.031 76.5176 195.002 76.4561 194.985 76.3906C194.731 75.3439 193.956 74.641 193.136 73.8997C192.305 73.1459 191.445 72.366 191.025 71.1673C190.687 70.0501 190.539 68.8842 190.587 67.7181C190.569 66.1184 190.554 64.7342 189.394 63.5445C185.311 59.4107 182.118 54.4841 180.012 49.0687C178.013 43.8498 177.633 39.3558 178.86 35.3322C179.666 32.8181 181.098 30.55 183.021 28.7402C184.943 26.9303 187.294 25.6381 189.852 24.9845L190.491 24.8245C194.597 23.7947 200.801 22.2396 204.478 24.2586C204.555 24.3006 204.619 24.3621 204.664 24.4369C204.71 24.5116 204.735 24.5971 204.736 24.6845C205.027 34.2572 204.772 43.8386 203.972 53.3822C203.469 59.3545 202.19 65.2359 200.169 70.8784C199.252 73.3928 198.396 74.8275 195.759 76.6841C195.713 76.7154 195.662 76.7393 195.609 76.7551M189.585 26.0892C187.303 26.7606 185.219 27.9803 183.516 29.6418C181.813 31.3034 180.543 33.3563 179.816 35.6216C178.657 39.4243 179.026 43.7048 180.947 48.7092C183.003 53.9977 186.122 58.8085 190.111 62.8446C191.549 64.3208 191.568 66.0409 191.587 67.7051C191.542 68.7632 191.671 69.8215 191.969 70.8379C192.304 71.7967 193.035 72.459 193.808 73.1594C194.603 73.7856 195.255 74.5731 195.723 75.4698C197.736 73.9472 198.438 72.7055 199.231 70.5329C201.22 64.9761 202.48 59.1842 202.977 53.3027C203.765 43.8918 204.021 34.4438 203.744 25.004C200.368 23.3778 194.59 24.826 190.733 25.7933L190.093 25.9533C189.924 25.9957 189.754 26.0412 189.586 26.0897" fill="black"/>
<path d="M141.447 49.7749C142.784 57.4362 142.165 65.3155 143.057 73.0378C143.949 80.76 146.629 88.6933 153.258 93.8682C159.094 98.4232 167.728 100.3 175.696 98.7431C183.665 97.1864 190.761 92.2445 194.142 85.8864C197.319 79.9112 196.569 67.8059 196.428 61.7197C200.071 61.8367 203.91 60.2471 205.776 57.5232C206.705 56.2241 207.085 54.6111 206.832 53.034C206.579 51.457 205.715 50.0433 204.426 49.0995C201.683 47.155 198.489 47.1865 195.297 50.9671C194.945 45.9812 193.508 41.2453 192.859 39.0667C191.098 33.1525 189.9 24.2055 185.383 22.1425C182.826 20.9737 177.651 20.3089 174.75 19.9175C169.739 19.2416 163.353 23.1368 158.267 23.7381C153.18 24.3395 148.269 27.3943 144.477 30.4271C139.94 34.0538 140.451 44.0426 141.451 49.7729" fill="white"/>
<path d="M178.329 98.6196C177.496 98.8612 176.65 99.0658 175.793 99.2335C167.665 100.82 158.912 98.915 152.951 94.2611C147.155 89.7375 143.66 82.6136 142.56 73.0952C142.17 69.71 142.066 66.2467 141.966 62.9015C141.837 58.5989 141.703 54.1484 140.955 49.8603C140.514 47.3304 138.595 34.4857 144.161 30.0352C149.164 26.0361 153.889 23.7516 158.205 23.2412C160.236 23.0008 162.465 22.2264 164.824 21.4076C168.224 20.2269 171.738 19.0081 174.814 19.4215L175.133 19.464C178.096 19.8639 183.055 20.5288 185.587 21.6865C189.383 23.4212 190.922 29.5478 192.281 34.9531C192.636 36.3668 192.971 37.7025 193.335 38.9227L193.378 39.0677C194.482 42.5621 195.257 46.1521 195.693 49.7909C198.531 46.956 201.701 46.5571 204.712 48.6911C206.114 49.7056 207.057 51.235 207.333 52.9436C207.609 54.6522 207.196 56.4005 206.185 57.8051C204.377 60.4485 200.71 62.1856 196.94 62.2236C196.954 62.7055 196.968 63.2189 196.985 63.7593C197.188 70.4823 197.495 80.6431 194.582 86.1203C191.49 91.9356 185.401 96.568 178.329 98.6176M141.94 49.6884C142.701 54.0474 142.835 58.5329 142.964 62.871C143.064 66.1977 143.168 69.6365 143.554 72.9807C144.62 82.2252 147.989 89.1202 153.567 93.4732C159.307 97.9542 167.75 99.7853 175.601 98.2527C183.452 96.72 190.382 91.8921 193.7 85.6519C196.487 80.4076 196.173 70.0054 195.986 63.7898C195.963 63.0479 195.942 62.3576 195.928 61.7307C195.926 61.6625 195.939 61.5948 195.965 61.5316C195.991 61.4684 196.029 61.4112 196.078 61.3633C196.126 61.3156 196.183 61.2783 196.246 61.2535C196.31 61.2288 196.377 61.2171 196.445 61.2193C200.069 61.3363 203.653 59.7372 205.363 57.2397C206.224 56.0509 206.578 54.5691 206.348 53.1193C206.118 51.6695 205.322 50.3702 204.135 49.5064C201.248 47.4604 198.402 48.0607 195.676 51.2875C195.612 51.3632 195.527 51.4181 195.431 51.4451C195.336 51.4722 195.234 51.4703 195.14 51.4396C195.046 51.4088 194.963 51.3507 194.901 51.2727C194.84 51.1946 194.804 51.1 194.796 51.0011C194.455 46.1801 193.081 41.5697 192.421 39.3537L192.377 39.2072C192.009 37.969 191.67 36.6223 191.313 35.1961C190.008 30.0102 188.532 24.13 185.172 22.5953C182.773 21.4986 177.908 20.8457 175.001 20.4543L174.681 20.4118C171.842 20.0289 168.443 21.2116 165.153 22.3514C162.846 23.1512 160.461 23.98 158.323 24.2325C154.195 24.7219 149.641 26.9359 144.786 30.815C140.811 33.9928 140.768 42.9679 141.941 49.6874" fill="black"/>
<path d="M163.348 34.2755C163.198 37.7927 158.797 43.5054 155.556 44.4287C152.314 45.352 150.804 44.0483 148.912 41.112C146.442 44.2338 144.716 47.2776 141.928 48.9462C137.667 51.4982 131.504 49.6391 129.133 45.0866C126.763 40.5341 128.642 34.1645 133.032 31.864C130.043 33.1682 126.36 30.5563 125.703 27.215C125.046 23.8738 126.853 20.4275 129.474 18.444C132.095 16.4604 135.388 15.6991 138.54 14.6573C136.745 11.627 137.593 7.4439 139.916 4.88346C142.239 2.32303 145.712 1.19578 149.097 1.01082C151.322 0.891343 153.633 1.15728 155.604 2.27104C156.637 2.85629 157.524 3.66897 158.198 4.6476C158.871 5.62623 159.313 6.74518 159.49 7.91979C161.738 3.75071 165.977 0.460937 170.575 0.731378C175.173 1.00182 179.46 5.80976 180.453 9.46495C182.131 6.44462 184.552 3.77621 187.887 3.3663C194.509 2.55248 196.982 7.8728 195.306 15.5826C198.492 13.2391 203.963 13.8175 206.525 18.6029C208.432 22.1662 208.117 28.4333 206.013 31.861C203.908 35.2888 195.076 39.4648 187.759 35.9711C183.693 34.03 181.36 30.8107 179.721 27.6889C178.387 31.3351 177.385 33.8596 172.854 36.2965C169.547 38.0741 165.125 37.4178 163.348 34.275" fill="black"/>
<path d="M198.679 37.0851C195.265 38.0734 191.243 38.1879 187.543 36.4213C183.532 34.5062 181.234 31.3904 179.809 28.8919C178.663 31.9298 177.409 34.4122 173.091 36.7347C169.816 38.4973 165.792 37.912 163.652 35.5455C162.73 39.1882 158.769 44.0181 155.71 44.9034L155.691 44.9084C152.422 45.8402 150.697 44.622 148.878 41.9661C148.428 42.5529 147.998 43.1348 147.581 43.7022C145.927 45.9482 144.365 48.0697 142.182 49.3749C141.08 50.0038 139.862 50.4021 138.601 50.5455C137.341 50.689 136.064 50.5746 134.849 50.2093C133.544 49.8545 132.325 49.2379 131.266 48.3968C130.207 47.5558 129.33 46.5081 128.689 45.3173C126.53 41.1722 127.669 35.7029 130.988 32.6911C130.219 32.6241 129.472 32.4011 128.792 32.0358C127.886 31.5581 127.096 30.8878 126.478 30.0719C125.859 29.2559 125.427 28.3143 125.211 27.3133C124.47 23.5436 126.666 19.9424 129.171 18.0468C131.377 16.3767 134.047 15.5449 136.63 14.7411C137.027 14.6166 137.425 14.4911 137.821 14.3666C136.394 11.3673 137.085 7.26072 139.546 4.54881C141.712 2.16034 145.095 0.728156 149.07 0.513203C151.757 0.369235 154.037 0.813137 155.849 1.83691C157.685 2.87578 159.061 4.57115 159.698 6.58237C162.348 2.45028 166.514 -0.0111809 170.602 0.233765C174.901 0.488709 179.046 4.47183 180.572 8.27049C182.599 5.02921 185.031 3.21161 187.821 2.87168C190.565 2.53376 192.795 3.21211 194.273 4.83075C196.135 6.8648 196.741 10.297 196.011 14.5631C197.662 13.7534 199.542 13.5354 201.335 13.9457C202.538 14.2284 203.665 14.7701 204.638 15.533C205.61 16.2959 206.405 17.2618 206.966 18.3633C208.93 22.034 208.685 28.461 206.437 32.1192C205.313 33.9503 202.346 36.0184 198.679 37.0831M179.581 27.2103C179.616 27.2004 179.652 27.1942 179.688 27.1918C179.785 27.1858 179.881 27.2077 179.965 27.2549C180.05 27.302 180.119 27.3725 180.164 27.4578C181.464 29.9402 183.69 33.4754 187.976 35.5215C194.885 38.8208 203.53 34.9481 205.585 31.5993C207.635 28.2631 207.873 22.1804 206.085 18.8387C205.591 17.8643 204.89 17.0093 204.032 16.3332C203.174 15.6572 202.178 15.1763 201.115 14.924C200.173 14.7014 199.195 14.6809 198.245 14.8638C197.295 15.0467 196.394 15.429 195.602 15.9853C195.521 16.0459 195.422 16.0801 195.32 16.0833C195.219 16.0865 195.118 16.0585 195.033 16.0032C194.948 15.9479 194.881 15.8678 194.842 15.7737C194.804 15.6795 194.795 15.5758 194.817 15.4764C195.786 11.0129 195.332 7.47017 193.539 5.5036C192.272 4.11391 190.39 3.56253 187.947 3.86297C185.233 4.19589 182.859 6.16246 180.89 9.70768C180.841 9.79473 180.768 9.86543 180.68 9.91073C180.591 9.95603 180.491 9.97386 180.392 9.96194C180.294 9.95002 180.201 9.9089 180.125 9.84383C180.05 9.77876 179.996 9.69272 179.97 9.5967C179.07 6.28343 175.047 1.49849 170.545 1.23055C166.496 0.991598 162.328 3.7105 159.93 8.16102C159.88 8.25401 159.802 8.32888 159.708 8.37488C159.613 8.42089 159.506 8.43569 159.402 8.41716C159.298 8.39864 159.203 8.34773 159.129 8.27173C159.056 8.19573 159.009 8.09854 158.994 7.99405C158.825 6.89601 158.411 5.85033 157.781 4.93506C157.151 4.01979 156.323 3.25857 155.358 2.70822C153.715 1.78092 151.619 1.37851 149.126 1.51248C145.414 1.71244 142.274 3.03015 140.285 5.22217C137.955 7.7901 137.389 11.7377 138.97 14.4046C139.008 14.4689 139.031 14.541 139.038 14.6154C139.044 14.6898 139.034 14.7648 139.008 14.8348C138.981 14.9048 138.94 14.968 138.886 15.0197C138.832 15.0715 138.767 15.1106 138.696 15.134C138.11 15.3279 137.518 15.5124 136.927 15.6964C134.313 16.5112 131.841 17.281 129.775 18.8457C127.515 20.5538 125.532 23.7756 126.192 27.1218C126.377 27.9768 126.747 28.7808 127.276 29.4774C127.805 30.174 128.48 30.7463 129.254 31.1539C129.792 31.4648 130.394 31.6491 131.014 31.6931C131.634 31.7371 132.256 31.6396 132.832 31.4079C132.95 31.3595 133.082 31.358 133.201 31.4038C133.32 31.4495 133.417 31.5391 133.473 31.654C133.528 31.769 133.537 31.9008 133.498 32.0223C133.459 32.1438 133.376 32.2459 133.264 32.3077C129.134 34.4707 127.342 40.5704 129.574 44.8549C130.153 45.9251 130.943 46.8664 131.897 47.6216C132.851 48.3768 133.948 48.9301 135.123 49.248C136.207 49.576 137.346 49.6803 138.472 49.5547C139.598 49.4291 140.686 49.0761 141.671 48.5171C143.68 47.3144 145.115 45.3678 146.777 43.1103C147.329 42.3605 147.9 41.5841 148.519 40.8008C148.568 40.7382 148.632 40.6883 148.704 40.6553C148.777 40.6223 148.856 40.6071 148.936 40.6111C149.016 40.6151 149.093 40.638 149.162 40.6781C149.231 40.7181 149.29 40.7741 149.333 40.8413C151.154 43.6692 152.466 44.7904 155.418 43.9471L155.434 43.9436C158.491 43.0578 162.713 37.545 162.85 34.2538C162.854 34.1452 162.893 34.0409 162.962 33.9569C163.031 33.873 163.126 33.8139 163.231 33.7889C163.337 33.7635 163.448 33.773 163.548 33.8161C163.648 33.8592 163.731 33.9335 163.785 34.0278C165.489 37.0462 169.734 37.4096 172.617 35.8554C177.081 33.4559 177.991 30.9645 179.252 27.5172C179.279 27.4436 179.323 27.3773 179.38 27.3237C179.438 27.2702 179.507 27.2308 179.582 27.2088" fill="black"/>
<path d="M150.509 59.5982C150.385 59.2515 150.369 58.8756 150.461 58.5193C150.554 58.163 150.751 57.8426 151.027 57.5995C151.304 57.3564 151.646 57.2018 152.012 57.1556C152.377 57.1095 152.747 57.1739 153.076 57.3406C153.404 57.5072 153.674 57.7685 153.853 58.0906C154.031 58.4127 154.108 58.7808 154.075 59.1474C154.042 59.514 153.899 59.8622 153.666 60.147C153.433 60.4318 153.12 60.6401 152.767 60.745C152.315 60.8921 151.824 60.854 151.401 60.6389C150.977 60.4239 150.656 60.0496 150.509 59.5982Z" fill="black"/>
<path d="M175.958 56.4724C175.834 56.1256 175.818 55.7498 175.91 55.3935C176.002 55.0372 176.199 54.7168 176.476 54.4737C176.752 54.2306 177.095 54.076 177.46 54.0298C177.826 53.9836 178.196 54.048 178.524 54.2147C178.853 54.3814 179.123 54.6427 179.301 54.9648C179.48 55.2869 179.557 55.655 179.524 56.0216C179.49 56.3881 179.348 56.7363 179.115 57.0211C178.882 57.3059 178.568 57.5142 178.216 57.6191C177.764 57.7663 177.273 57.7281 176.849 57.5131C176.426 57.2981 176.105 56.9237 175.958 56.4724Z" fill="black"/>
<path d="M174.679 87.0595C173.603 87.3746 172.478 87.4903 171.36 87.4009C171.292 87.3984 171.226 87.3822 171.165 87.3533C171.104 87.3245 171.049 87.2835 171.004 87.2329C170.959 87.1824 170.925 87.1232 170.904 87.0591C170.883 86.995 170.875 86.9272 170.88 86.8599C170.886 86.7925 170.905 86.727 170.937 86.6673C170.968 86.6076 171.012 86.555 171.064 86.5125C171.117 86.47 171.178 86.4387 171.243 86.4203C171.308 86.402 171.376 86.397 171.443 86.4057C173.019 86.5182 174.595 86.1928 175.998 85.4653C177.401 84.7379 178.575 83.6367 179.391 82.2836C179.423 82.2245 179.466 82.1725 179.519 82.1306C179.571 82.0887 179.632 82.0579 179.696 82.0398C179.761 82.0218 179.829 82.017 179.895 82.0257C179.962 82.0344 180.026 82.0564 180.084 82.0904C180.142 82.1245 180.192 82.1698 180.232 82.2238C180.272 82.2777 180.301 82.3392 180.317 82.4045C180.332 82.4698 180.335 82.5375 180.324 82.6038C180.313 82.67 180.288 82.7333 180.252 82.79C179.003 84.8672 177.012 86.393 174.681 87.0595" fill="black"/>
<path d="M168.6 78.3619C167.044 78.7757 165.414 78.8313 163.833 78.5244C163.021 78.4329 162.246 78.1333 161.583 77.6546C161.135 77.2528 160.785 76.7525 160.562 76.1929C160.339 75.6333 160.248 75.0297 160.298 74.4293C160.366 73.4856 160.553 72.5543 160.854 71.6574L160.973 71.2475C162.359 66.3574 162.608 61.215 161.701 56.2138C161.681 56.0848 161.712 55.9529 161.787 55.8463C161.863 55.7397 161.977 55.6668 162.105 55.6434C162.234 55.6199 162.366 55.6477 162.475 55.7208C162.583 55.7938 162.658 55.9064 162.685 56.0343C163.619 61.1866 163.363 66.4845 161.935 71.5224L161.815 71.9383C161.538 72.7538 161.364 73.6009 161.297 74.4598C161.258 74.9056 161.319 75.3547 161.478 75.7732C161.637 76.1918 161.888 76.5689 162.214 76.8762C162.744 77.242 163.358 77.4696 163.998 77.5386C165.54 77.8446 167.133 77.7634 168.635 77.3022C169.356 77.0737 170.023 76.7013 170.595 76.2075C171.168 75.7136 171.634 75.1087 171.966 74.4293C172.023 74.3148 172.122 74.2268 172.243 74.1833C172.363 74.1397 172.495 74.1441 172.613 74.1953C172.73 74.2466 172.823 74.3409 172.873 74.4589C172.923 74.5768 172.925 74.7094 172.88 74.8292C172.497 75.6381 171.951 76.3592 171.276 76.9472C170.601 77.5352 169.812 77.9776 168.958 78.2464C168.84 78.2869 168.719 78.3244 168.598 78.3599" fill="black"/>
<path d="M198.432 30.1087C198.319 30.1411 198.198 30.1326 198.091 30.0846C197.983 30.0367 197.896 29.9524 197.845 29.8466C197.793 29.7408 197.781 29.6202 197.81 29.5061C197.838 29.392 197.906 29.2917 198.002 29.2229C199.315 28.2391 200.301 26.883 200.833 25.3309C201.364 23.7789 201.416 22.1028 200.982 20.5208C200.945 20.3936 200.959 20.2568 201.023 20.1404C201.086 20.0239 201.193 19.9375 201.32 19.8999C201.447 19.8632 201.583 19.8783 201.699 19.9418C201.815 20.0053 201.901 20.1121 201.938 20.2388C202.427 22.0193 202.369 23.9058 201.77 25.6526C201.172 27.3993 200.062 28.9255 198.584 30.0322C198.537 30.0657 198.486 30.0912 198.431 30.1077" fill="black"/>
<g opacity="0.129">
<mask id="mask5_5_231" style="mask-type:luminance" maskUnits="userSpaceOnUse" x="142" y="27" width="40" height="25">
<path d="M181.094 27.9675H142.083V51.2509H181.094V27.9675Z" fill="white"/>
</mask>
<g mask="url(#mask5_5_231)">
<path d="M179.521 28.0129C179.194 28.5983 178.845 29.1706 178.482 29.734C178.457 29.851 178.41 30.0339 178.294 30.4463C178.098 31.0166 177.867 31.5743 177.603 32.1165C176.745 33.6692 175.61 35.0518 174.254 36.1961C174.098 35.998 173.875 35.8639 173.627 35.8192C173.379 35.7744 173.124 35.8221 172.908 35.9531C172.835 35.9936 172.758 36.0301 172.682 36.0666C172.647 36.0801 172.605 36.0946 172.549 36.1166C171.648 36.4194 170.729 36.6643 169.796 36.8499L170.1 36.8049C169.131 36.9238 168.152 36.9238 167.183 36.8049C167.116 36.7949 166.983 36.778 166.861 36.761C166.617 36.7013 166.36 36.7218 166.128 36.8194C166.067 36.8063 166.006 36.7969 165.944 36.7914C165.932 36.7744 165.913 36.75 165.88 36.7085C165.87 36.689 165.859 36.6705 165.85 36.651C165.851 36.5441 165.843 36.4372 165.827 36.3315C165.786 36.1391 165.705 35.9575 165.588 35.799C165.472 35.6405 165.323 35.5087 165.151 35.4124C164.979 35.3162 164.789 35.2576 164.593 35.2407C164.397 35.2237 164.2 35.2488 164.014 35.3143C163.252 35.5397 162.951 36.414 163.052 37.1599C162.957 37.4337 162.848 37.7025 162.725 37.9652C162.18 38.952 161.533 39.8853 160.893 40.8146C160.771 40.994 160.415 41.4464 160.36 41.5309C160.331 41.5674 160.302 41.6029 160.272 41.6384C159.522 42.5217 157.956 44.0378 156.373 44.6712L156.35 44.6797C155.969 44.7908 155.579 44.8656 155.184 44.9032C155.076 44.9032 154.941 44.9032 154.821 44.8897C154.763 44.8752 154.703 44.8642 154.647 44.8457C154.505 44.7957 154.367 44.7422 154.231 44.6822L154.123 44.6222C154.073 44.5917 154.023 44.5577 153.973 44.5257C153.53 44.5648 153.085 44.4935 152.677 44.3183C152.241 44.2443 151.833 44.0561 151.494 43.7729C151.306 43.6125 151.138 43.4316 150.991 43.2335C150.97 43.2065 150.95 43.1775 150.928 43.1495C150.9 43.1282 150.873 43.1054 150.847 43.0811C150.775 43.0116 150.703 42.9421 150.632 42.8726C150.154 42.4061 149.735 41.8834 149.383 41.3159L149.347 41.3209C149.102 41.3757 148.875 41.4915 148.687 41.6576C148.499 41.8236 148.356 42.0346 148.271 42.2707C148.219 42.4854 148.15 42.6958 148.065 42.9001C148.041 42.9586 148.015 43.0146 147.987 43.0721C147.979 43.0891 147.96 43.1221 147.929 43.1915L147.934 43.1855L147.909 43.2355C147.586 43.6699 147.35 44.1713 147.006 44.5932C146.873 44.7592 146.73 44.9192 146.59 45.0786C146.552 45.1211 146.507 45.1711 146.462 45.2236C146.443 45.2431 146.425 45.2641 146.403 45.2881C145.679 46.0862 144.886 46.8186 144.033 47.4766C143.465 48.0035 142.624 48.3159 142.264 49.0222C141.476 50.4909 143.422 51.9831 144.663 50.8668C146.494 49.5878 148.083 47.9929 149.355 46.1569C149.56 45.8519 149.752 45.5385 149.926 45.2151C150.936 46.3247 152.167 47.2102 153.541 47.8145C155.619 48.5209 157.893 47.7305 159.589 46.4618C160.753 45.612 161.778 44.5869 162.627 43.423C163.447 42.3512 164.159 41.2008 164.752 39.9887C165.373 40.5925 166.104 41.0717 166.905 41.4004C168.025 41.8238 169.25 41.8814 170.404 41.5649C170.354 41.5819 170.301 41.6014 170.26 41.6149C170.375 41.5919 170.488 41.5649 170.602 41.5369C172.032 41.1026 173.374 40.4187 174.567 39.5168C176.362 38.2721 177.901 36.6938 179.101 34.8679C179.842 33.7077 180.383 32.4314 180.701 31.0922C180.751 30.7568 180.72 31.0532 180.673 31.2287C180.819 30.7288 180.923 30.2159 181.019 29.704C181.118 29.4102 181.117 29.0918 181.016 28.7987C180.92 28.4978 180.71 28.2469 180.43 28.1008C180.15 27.9548 179.824 27.9255 179.522 28.0194" fill="black"/>
</g>
</g>
<g opacity="0.129">
<mask id="mask6_5_231" style="mask-type:luminance" maskUnits="userSpaceOnUse" x="192" y="34" width="13" height="11">
<path d="M204.262 34.7228H192.205V44.8006H204.262V34.7228Z" fill="white"/>
</mask>
<g mask="url(#mask6_5_231)">
<path d="M203.968 35.1167C203.304 34.3493 202.408 34.8752 201.681 35.2446C200.601 35.7765 199.456 36.1559 198.365 36.6608C197.575 37.0674 196.764 37.4302 195.935 37.7476L195.958 37.7391C195.698 37.8316 195.495 37.9075 195.958 37.7441C195.518 37.921 195.032 38.004 194.608 38.209C194.456 38.0162 194.251 37.8717 194.018 37.7931C193.762 37.7112 193.489 37.7059 193.23 37.7778C192.972 37.8497 192.74 37.9956 192.564 38.1976C192.388 38.3995 192.274 38.6487 192.238 38.9144C192.201 39.1801 192.243 39.4506 192.359 39.6926C192.805 40.4744 193.197 41.2854 193.533 42.1201C193.841 43.3913 194.42 45.3909 196.123 44.6306C196.44 44.4526 196.689 44.1764 196.835 43.8437C196.813 43.9572 197.464 43.0359 197.646 42.857C198.356 41.9761 199.765 40.555 201.152 39.1423C201.879 38.4369 202.632 37.7576 203.419 37.1197C203.481 37.0747 203.546 37.0317 203.61 36.9877C203.664 36.9513 203.747 36.8953 203.83 36.8343C203.953 36.7313 204.055 36.6049 204.128 36.4623C204.202 36.3198 204.247 36.1639 204.26 36.0038C204.274 35.8438 204.255 35.6827 204.205 35.5299C204.155 35.3772 204.076 35.2359 203.971 35.1142" fill="black"/>
</g>
</g>
<g opacity="0.129">
<mask id="mask7_5_231" style="mask-type:luminance" maskUnits="userSpaceOnUse" x="164" y="89" width="35" height="22">
<path d="M198.303 89.298H164.961V110.395H198.303V89.298Z" fill="white"/>
</mask>
<g mask="url(#mask7_5_231)">
<path d="M197.849 107.903C197.414 106.623 196.975 105.34 196.609 104.036C195.799 101.301 195.082 98.5441 194.459 95.7651C193.687 93.7315 192.953 91.682 192.366 89.5849C192.357 89.5528 192.35 89.5203 192.344 89.4875C192.327 89.369 192.349 89.313 192.338 89.3035C192.209 89.1705 189.87 91.4285 189.87 91.4285C188.547 92.6657 187.158 93.8308 185.71 94.9188C183.576 96.4663 181.171 97.6005 178.62 98.2625C175.345 99.2041 171.933 99.5743 168.533 99.3568C167.054 99.3068 165.823 99.1813 164.96 99.0689C165.135 99.4412 165.358 99.7887 165.624 100.102C166.762 101.439 168.38 101.617 169.794 102.085C171.414 102.62 173.033 103.153 174.653 103.684C177.933 104.76 181.216 105.834 184.508 106.872C186.041 107.358 187.58 107.829 189.124 108.287C190.61 108.752 192.144 109.044 193.697 109.157L193.267 109.139C193.401 109.161 193.534 109.18 193.67 109.196C193.851 109.208 194.031 109.229 194.209 109.26C194.627 109.44 195.045 109.616 195.47 109.779C195.865 109.923 196.269 110.038 196.679 110.126C196.832 110.271 197.027 110.364 197.236 110.389C197.445 110.414 197.657 110.371 197.839 110.266C198.757 109.714 198.061 108.662 197.848 107.902" fill="black"/>
</g>
</g>
<g opacity="0.129">
<mask id="mask8_5_231" style="mask-type:luminance" maskUnits="userSpaceOnUse" x="179" y="140" width="6" height="6">
<path d="M184.766 140.444H179.24V145.648H184.766V140.444Z" fill="white"/>
</mask>
<g mask="url(#mask8_5_231)">
<path d="M182.34 141.57C181.942 141.139 181.431 140.827 180.865 140.67C179.333 140.408 178.601 142.57 179.944 143.338C180.592 143.756 181.205 144.227 181.777 144.745C182.133 145.121 182.459 145.615 183.032 145.625C183.245 145.65 183.461 145.625 183.663 145.554C183.865 145.483 184.048 145.367 184.199 145.214C184.349 145.061 184.463 144.876 184.532 144.673C184.6 144.47 184.621 144.254 184.594 144.042C184.678 142.792 184.502 142.619 184.73 141.942C185.083 140.192 182.608 139.854 182.339 141.569" fill="black"/>
</g>
</g>
<g opacity="0.129">
<mask id="mask9_5_231" style="mask-type:luminance" maskUnits="userSpaceOnUse" x="185" y="134" width="10" height="10">
<path d="M194.773 134.597H185.396V143.356H194.773V134.597Z" fill="white"/>
</mask>
<g mask="url(#mask9_5_231)">
<path d="M194.148 140.914C193.789 140.324 193.051 140.01 192.588 139.499C191.612 138.639 190.721 137.687 189.929 136.656C189.662 136.299 189.384 135.949 189.148 135.569C189.064 135.356 188.936 135.164 188.771 135.005C188.606 134.846 188.408 134.725 188.192 134.65C187.95 134.588 187.696 134.599 187.461 134.681C187.226 134.762 187.019 134.911 186.868 135.108C186.716 135.306 186.625 135.544 186.607 135.792C186.589 136.04 186.644 136.289 186.766 136.506C186.901 136.717 187.045 136.925 187.188 137.131C187.079 137.076 186.959 137.045 186.838 137.04C185.478 136.806 184.827 138.729 186.02 139.408C187.449 140.198 188.834 141.058 190.217 141.925C191.183 142.515 192.215 142.989 193.292 143.337C194.683 143.575 195.35 141.619 194.146 140.914" fill="black"/>
</g>
</g>
<g opacity="0.129">
<mask id="mask10_5_231" style="mask-type:luminance" maskUnits="userSpaceOnUse" x="166" y="134" width="11" height="8">
<path d="M176.97 134.264H166.68V141.714H176.97V134.264Z" fill="white"/>
</mask>
<g mask="url(#mask10_5_231)">
<path d="M176.794 137.273C176.462 136.661 176.173 136.03 175.794 135.442C175.613 135.135 175.513 134.748 175.191 134.555C175.029 134.429 174.839 134.342 174.636 134.303C174.434 134.264 174.225 134.274 174.028 134.332C173.83 134.389 173.649 134.493 173.499 134.634C173.349 134.776 173.235 134.951 173.166 135.145C173.123 135.15 173.08 135.157 173.038 135.167C172.499 135.307 172.171 135.793 171.8 136.169C171.485 136.431 171.262 136.788 171.164 137.186L171.153 137.208C171.059 137.359 170.993 137.527 170.957 137.702C170.413 137.909 169.876 138.142 169.347 138.394C168.547 138.788 167.569 139.01 166.959 139.686C166.785 139.917 166.696 140.201 166.707 140.49C166.718 140.778 166.828 141.055 167.018 141.272C167.209 141.489 167.469 141.634 167.754 141.682C168.039 141.73 168.332 141.678 168.583 141.536C169.71 140.995 170.863 140.514 172.04 140.094C172.957 139.826 173.888 139.606 174.828 139.436C175.044 139.379 175.246 139.28 175.424 139.145C175.664 139.198 175.915 139.18 176.145 139.093C176.375 139.006 176.575 138.854 176.72 138.656C176.866 138.457 176.95 138.221 176.963 137.975C176.976 137.729 176.917 137.485 176.794 137.272" fill="black"/>
</g>
</g>
<g opacity="0.129">
<mask id="mask11_5_231" style="mask-type:luminance" maskUnits="userSpaceOnUse" x="185" y="213" width="9" height="29">
<path d="M193.024 213.871H185.236V241.248H193.024V213.871Z" fill="white"/>
</mask>
<g mask="url(#mask11_5_231)">
<path d="M192.606 222.106C192.531 220.687 192.248 219.286 191.767 217.948C191.452 217.009 191.038 216.106 190.532 215.254C190.199 214.712 189.861 214.092 189.191 213.937C188.877 213.855 188.545 213.868 188.238 213.974C187.93 214.08 187.661 214.274 187.463 214.531C187.265 214.789 187.147 215.099 187.123 215.423C187.1 215.748 187.173 216.071 187.332 216.355L187.341 216.369C187.171 216.835 186.81 217.291 186.891 217.798C186.913 217.969 186.977 218.132 187.077 218.272C187.177 218.413 187.309 218.527 187.463 218.605C187.617 218.682 187.788 218.721 187.96 218.718C188.133 218.715 188.302 218.67 188.452 218.586C188.734 219.441 188.959 220.314 189.123 221.199C189.334 223.269 189.552 225.343 189.555 227.427C189.524 228.872 189.537 230.326 189.403 231.764C189.163 233.336 188.815 234.889 188.359 236.413C188.325 236.359 188.295 236.303 188.259 236.25C187.964 235.9 187.73 235.428 187.267 235.286C185.829 234.623 184.544 236.56 185.667 237.66C185.759 237.76 185.88 237.901 185.963 237.999C185.989 238.037 186.013 238.076 186.038 238.116C186.043 238.136 186.051 238.155 186.055 238.175C186.063 238.334 186.057 238.494 186.036 238.652L186.04 238.629V238.67C186.02 238.777 186.009 238.884 186.007 238.992C185.97 239.279 186.024 239.57 186.161 239.824C186.274 240.031 186.451 240.197 186.665 240.297C186.778 240.629 187.013 240.905 187.321 241.072C187.629 241.239 187.989 241.283 188.329 241.197C188.906 241.055 189.179 240.484 189.59 240.108C190.341 239.305 190.985 238.407 191.505 237.438C192.435 235.374 192.95 233.146 193.019 230.883C193.059 227.951 192.921 225.019 192.605 222.103" fill="black"/>
</g>
</g>
<g opacity="0.129">
<mask id="mask12_5_231" style="mask-type:luminance" maskUnits="userSpaceOnUse" x="319" y="154" width="9" height="28">
<path d="M327.965 154.158H319.012V181.09H327.965V154.158Z" fill="white"/>
</mask>
<g mask="url(#mask12_5_231)">
<path d="M327.929 155.827C327.709 153.75 324.679 153.553 324.133 155.569C323.315 158.728 322.846 161.972 322.003 165.128C321.253 168.085 320.454 171.03 319.854 174.021C319.698 175.046 319.54 176.068 319.466 177.101C319.452 177.176 319.439 177.251 319.424 177.325C319.344 177.741 319.242 178.154 319.118 178.56L319.109 178.587C319.103 178.609 319.098 178.629 319.092 178.65L319.097 178.638C318.956 179.086 318.986 179.57 319.18 179.998C319.374 180.425 319.719 180.766 320.149 180.955C320.579 181.144 321.063 181.168 321.509 181.022C321.956 180.875 322.332 180.569 322.567 180.163C322.562 180.163 322.553 180.17 322.544 180.18C322.913 179.443 323.151 178.648 323.248 177.83C323.823 175.626 324.034 173.346 324.572 171.132C325.495 167.085 326.491 163.054 327.322 158.987C327.452 158.358 327.568 157.724 327.748 157.104C327.919 156.702 327.981 156.262 327.926 155.829" fill="black"/>
</g>
</g>
<g opacity="0.129">
<mask id="mask13_5_231" style="mask-type:luminance" maskUnits="userSpaceOnUse" x="188" y="162" width="120" height="89">
<path d="M307.045 162.192H188.437V250.562H307.045V162.192Z" fill="white"/>
</mask>
<g mask="url(#mask13_5_231)">
<path d="M305.126 243.713C304.484 242.134 304.033 240.488 303.501 238.87C302.807 236.839 301.996 234.851 301.293 232.821C300.315 230.096 299.636 227.838 298.925 225.611C294.588 215.534 290.451 205.372 286.402 195.176C282.064 184.249 277.935 173.242 273.923 162.192C273.705 162.305 273.533 162.49 273.436 162.715C273.34 162.941 273.324 163.193 273.392 163.429C275.323 169.667 277.952 175.662 280.151 181.809C282.767 189.785 285.18 197.838 287.106 206.011C287.535 207.698 288.029 209.365 288.528 211.031C288.28 210.995 288.026 211.021 287.79 211.107C287.554 211.193 287.343 211.335 287.175 211.522C287.007 211.709 286.888 211.935 286.829 212.179C286.769 212.423 286.771 212.678 286.834 212.921C288.06 219.49 289.094 224.013 289.268 230.327C289.297 231.311 289.313 232.296 289.323 233.279C289.157 233.344 289.003 233.434 288.865 233.546C288.71 233.647 288.576 233.778 288.471 233.931C288.718 232.937 288.944 231.939 289.15 230.936C288.986 230.921 288.821 230.942 288.666 230.997C288.511 231.053 288.37 231.141 288.253 231.257C287.932 231.549 287.932 231.991 287.835 232.382C287.468 233.685 287.54 233.635 286.957 234.532C286.943 234.553 286.928 234.571 286.912 234.592C286.873 234.642 286.826 234.699 286.774 234.758C285.026 236.644 283.107 238.367 281.044 239.903C277.721 242.272 275.753 243.033 272.103 244.221C270.994 244.579 269.879 244.921 268.754 245.221C266.379 245.25 263.989 245.426 261.616 245.359C257.811 245.259 254.025 244.827 250.229 244.583C244.703 244.389 238.534 244.291 234.328 243.475C230.698 242.571 226.951 242.578 223.25 242.193C219.931 241.888 218.777 241.678 215.822 241.312C213.717 241.083 210.626 240.802 209.864 240.644C206.767 240.126 200.625 238.994 199.499 238.916C197.539 238.601 195.559 238.42 193.575 238.373C192.984 238.42 192.348 238.223 191.796 238.473C191.569 238.559 191.369 238.704 191.218 238.894C191.067 239.085 190.971 239.312 190.94 239.553C190.559 239.531 190.178 239.508 189.796 239.485C189.612 239.476 189.43 239.517 189.267 239.603C187.895 240.127 188.33 242.244 189.796 242.228C192.716 242.342 195.628 242.606 198.521 243.02C200.165 243.274 201.813 243.517 203.47 243.69C204.19 243.694 204.977 244.015 205.669 243.746C205.93 243.65 206.15 243.466 206.29 243.225C206.58 243.288 206.87 243.351 207.161 243.414C211.932 244.427 215.768 244.552 219.65 245.164C223.441 245.642 227.249 245.943 231.052 246.268C231.91 246.42 235.519 247.027 238.114 247.206C238.184 247.476 238.342 247.714 238.564 247.882C238.786 248.051 239.058 248.139 239.336 248.135C241.297 248.285 243.245 248.541 245.2 248.734C245.741 249.719 246.64 249.427 247.788 249.669C250.295 249.936 252.816 249.877 255.333 249.953C257.929 250.048 260.522 250.253 263.122 250.207C265.325 250.187 267.516 249.922 269.707 249.703C271.555 249.547 273.461 249.524 275.214 248.874C275.204 249.071 275.235 249.267 275.303 249.452C275.371 249.636 275.476 249.805 275.612 249.948C275.748 250.09 275.911 250.204 276.091 250.282C276.272 250.36 276.467 250.4 276.664 250.4C277.187 250.425 277.855 250.411 278.583 250.373C278.597 250.438 278.623 250.498 278.644 250.56C279.477 250.474 280.311 250.394 281.146 250.318C286.256 249.858 291.359 249.635 296.489 249.612C296.579 249.515 296.661 249.412 296.734 249.302C296.953 249.306 297.17 249.271 297.376 249.198C297.534 249.379 297.733 249.519 297.957 249.606C300.182 249.597 302.406 249.583 304.629 249.503C305.208 249.483 305.787 249.458 306.365 249.429C306.582 249.288 306.759 249.093 306.878 248.863C306.997 248.633 307.054 248.376 307.044 248.118C306.944 247.244 306.444 246.462 306.075 245.677C305.739 245.031 305.416 244.377 305.126 243.711M282.245 245.251C281.219 246.467 281.121 246.608 280.361 247.43C279.939 247.447 279.517 247.46 279.095 247.468C278.784 247.492 278.471 247.495 278.159 247.478C280.056 246.322 281.804 244.938 283.364 243.358C283.606 243.147 283.846 242.927 284.085 242.697C283.489 243.561 282.87 244.409 282.244 245.251M297.531 232.436C297.463 231.816 297.393 231.196 297.323 230.575C297.426 230.896 297.527 231.218 297.633 231.538C297.763 231.938 297.896 232.338 298.033 232.738C297.884 232.609 297.714 232.508 297.529 232.438M302.316 247.045C302.706 246.929 303.039 246.673 303.251 246.325C303.373 246.569 303.497 246.815 303.632 247.071C303.163 247.057 302.73 247.05 302.316 247.045Z" fill="black"/>
</g>
</g>
<path d="M177.989 159.538C177.948 159.538 177.909 159.522 177.88 159.493C177.866 159.479 177.854 159.462 177.846 159.444C177.838 159.425 177.834 159.405 177.834 159.385C177.834 159.365 177.838 159.345 177.846 159.327C177.854 159.308 177.866 159.291 177.88 159.277L184.315 152.929C184.33 152.915 184.346 152.903 184.365 152.896C184.384 152.888 184.403 152.885 184.423 152.885C184.443 152.885 184.463 152.889 184.482 152.897C184.5 152.904 184.517 152.916 184.531 152.93C184.545 152.944 184.556 152.961 184.564 152.98C184.571 152.998 184.575 153.018 184.575 153.038C184.575 153.058 184.571 153.078 184.563 153.096C184.555 153.115 184.544 153.132 184.53 153.146L178.095 159.494C178.066 159.522 178.027 159.538 177.987 159.538" fill="black"/>
<path d="M178.46 155.005C178.429 155.005 178.4 154.996 178.374 154.98C178.349 154.963 178.329 154.939 178.318 154.911C178.306 154.883 178.303 154.852 178.309 154.822C178.315 154.793 178.33 154.765 178.351 154.744L183.571 149.524C183.585 149.51 183.602 149.499 183.621 149.491C183.639 149.483 183.659 149.479 183.679 149.479C183.699 149.479 183.719 149.483 183.738 149.491C183.756 149.498 183.773 149.51 183.788 149.524C183.802 149.538 183.813 149.555 183.821 149.573C183.829 149.592 183.833 149.612 183.833 149.632C183.833 149.652 183.829 149.672 183.821 149.69C183.813 149.709 183.802 149.726 183.788 149.74L178.568 154.961C178.539 154.989 178.5 155.005 178.46 155.005Z" fill="black"/>
<path d="M179.433 150.381C179.403 150.381 179.373 150.372 179.347 150.355C179.322 150.339 179.302 150.315 179.291 150.287C179.279 150.259 179.276 150.228 179.282 150.198C179.288 150.168 179.303 150.141 179.324 150.12L183.515 145.931C183.529 145.916 183.546 145.905 183.564 145.897C183.583 145.889 183.603 145.885 183.623 145.885C183.643 145.885 183.663 145.889 183.682 145.897C183.7 145.905 183.717 145.916 183.731 145.931C183.759 145.96 183.775 145.998 183.775 146.039C183.775 146.079 183.759 146.118 183.731 146.147L179.542 150.337C179.513 150.365 179.474 150.381 179.433 150.381" fill="black"/>
<path d="M180.535 145.949C180.504 145.95 180.475 145.941 180.449 145.924C180.424 145.907 180.404 145.884 180.393 145.855C180.381 145.827 180.378 145.797 180.384 145.767C180.39 145.737 180.405 145.71 180.426 145.688L183.193 142.923C183.207 142.909 183.224 142.897 183.242 142.889C183.261 142.881 183.281 142.877 183.301 142.877C183.321 142.877 183.341 142.881 183.36 142.889C183.378 142.897 183.395 142.909 183.409 142.923C183.437 142.952 183.453 142.991 183.453 143.031C183.453 143.071 183.437 143.11 183.409 143.139L180.643 145.906C180.614 145.934 180.575 145.949 180.535 145.949Z" fill="black"/>
<path d="M176.968 164.407C176.937 164.407 176.908 164.398 176.882 164.381C176.857 164.365 176.838 164.341 176.826 164.313C176.815 164.285 176.812 164.254 176.818 164.224C176.824 164.195 176.838 164.167 176.86 164.146L184.131 156.877C184.145 156.862 184.162 156.851 184.18 156.843C184.199 156.835 184.219 156.831 184.239 156.831C184.259 156.831 184.279 156.835 184.298 156.843C184.316 156.851 184.333 156.862 184.347 156.877C184.375 156.905 184.391 156.944 184.391 156.985C184.391 157.025 184.375 157.064 184.347 157.093L177.076 164.362C177.047 164.39 177.008 164.406 176.968 164.406" fill="black"/>
<path d="M176.449 169.681C176.419 169.681 176.389 169.672 176.364 169.656C176.338 169.639 176.319 169.615 176.307 169.587C176.295 169.559 176.292 169.528 176.298 169.498C176.304 169.469 176.319 169.441 176.341 169.42L184.476 161.283C184.505 161.255 184.544 161.239 184.585 161.239C184.625 161.239 184.664 161.255 184.693 161.283C184.722 161.312 184.738 161.351 184.738 161.392C184.738 161.432 184.722 161.471 184.693 161.5L176.559 169.637C176.528 169.665 176.49 169.68 176.449 169.681Z" fill="black"/>
<path d="M175.239 175.56C175.208 175.56 175.179 175.551 175.153 175.534C175.128 175.518 175.108 175.494 175.097 175.466C175.085 175.438 175.082 175.407 175.088 175.377C175.094 175.347 175.109 175.32 175.13 175.299L185.335 165.094C185.364 165.065 185.403 165.049 185.444 165.049C185.484 165.049 185.523 165.065 185.552 165.094C185.58 165.123 185.596 165.162 185.596 165.202C185.596 165.243 185.58 165.282 185.552 165.311L175.347 175.516C175.318 175.544 175.279 175.56 175.239 175.56Z" fill="black"/>
<path d="M174.332 181.394C174.301 181.395 174.271 181.386 174.246 181.369C174.221 181.352 174.201 181.328 174.189 181.3C174.178 181.272 174.175 181.242 174.181 181.212C174.187 181.182 174.201 181.155 174.223 181.133L186.07 169.286C186.099 169.257 186.138 169.241 186.179 169.241C186.22 169.241 186.259 169.257 186.287 169.286C186.316 169.315 186.331 169.354 186.331 169.395C186.331 169.435 186.316 169.474 186.287 169.503L174.44 181.35C174.411 181.379 174.372 181.394 174.332 181.394Z" fill="black"/>
<path d="M173.208 186.943C173.177 186.943 173.148 186.934 173.122 186.917C173.097 186.901 173.077 186.877 173.066 186.849C173.054 186.821 173.051 186.79 173.057 186.76C173.063 186.73 173.078 186.703 173.099 186.682L186.366 173.415C186.395 173.386 186.434 173.37 186.474 173.37C186.515 173.37 186.554 173.386 186.583 173.415C186.611 173.444 186.627 173.483 186.627 173.524C186.627 173.564 186.611 173.603 186.583 173.632L173.316 186.899C173.287 186.927 173.248 186.943 173.208 186.943Z" fill="black"/>
<path d="M172.641 192.269C172.601 192.27 172.562 192.254 172.533 192.225C172.505 192.196 172.489 192.157 172.489 192.117C172.489 192.076 172.505 192.038 172.533 192.008L186.937 177.605C186.965 177.576 187.004 177.56 187.045 177.56C187.085 177.56 187.124 177.576 187.153 177.605C187.181 177.633 187.197 177.672 187.197 177.713C187.197 177.753 187.181 177.792 187.153 177.821L172.75 192.225C172.721 192.254 172.682 192.269 172.642 192.269" fill="black"/>
<path d="M173.676 196.279C173.646 196.279 173.616 196.27 173.591 196.253C173.565 196.237 173.546 196.213 173.534 196.185C173.522 196.157 173.519 196.126 173.525 196.096C173.531 196.066 173.546 196.039 173.568 196.018L186.727 182.86C186.756 182.831 186.795 182.815 186.836 182.815C186.876 182.815 186.915 182.831 186.944 182.86C186.972 182.889 186.988 182.928 186.988 182.968C186.988 183.008 186.972 183.047 186.944 183.076L173.785 196.235C173.756 196.263 173.717 196.278 173.676 196.279Z" fill="black"/>
<path d="M175.239 199.564C175.209 199.564 175.179 199.555 175.154 199.539C175.129 199.522 175.109 199.498 175.097 199.47C175.085 199.442 175.082 199.411 175.088 199.381C175.094 199.352 175.109 199.324 175.131 199.303L186.72 187.713C186.734 187.698 186.751 187.686 186.77 187.677C186.789 187.669 186.809 187.665 186.83 187.665C186.85 187.664 186.87 187.668 186.889 187.676C186.908 187.684 186.926 187.695 186.94 187.71C186.955 187.724 186.966 187.741 186.974 187.76C186.982 187.779 186.985 187.8 186.985 187.82C186.985 187.841 186.98 187.861 186.972 187.88C186.964 187.898 186.952 187.915 186.937 187.929L175.348 199.52C175.318 199.548 175.28 199.563 175.239 199.564Z" fill="black"/>
<path d="M176.238 202.938C176.208 202.938 176.178 202.929 176.153 202.913C176.127 202.896 176.108 202.872 176.096 202.844C176.084 202.816 176.081 202.785 176.087 202.755C176.093 202.726 176.108 202.698 176.13 202.677L187.224 191.583C187.253 191.555 187.292 191.539 187.332 191.539C187.373 191.539 187.412 191.555 187.441 191.583C187.468 191.612 187.484 191.651 187.484 191.691C187.484 191.732 187.468 191.771 187.441 191.8L176.347 202.894C176.318 202.922 176.279 202.938 176.238 202.938Z" fill="black"/>
<path d="M177.689 205.832C177.658 205.832 177.629 205.823 177.603 205.807C177.578 205.79 177.558 205.766 177.547 205.738C177.535 205.71 177.532 205.679 177.538 205.649C177.544 205.62 177.559 205.592 177.58 205.571L186.269 196.882C186.298 196.854 186.337 196.838 186.378 196.838C186.419 196.838 186.458 196.854 186.486 196.882C186.515 196.912 186.53 196.95 186.53 196.991C186.53 197.031 186.515 197.07 186.486 197.099L177.798 205.788C177.769 205.816 177.73 205.831 177.69 205.831" fill="black"/>
<path d="M179.302 208.48C179.272 208.481 179.242 208.472 179.217 208.455C179.192 208.438 179.172 208.415 179.16 208.386C179.149 208.358 179.146 208.328 179.152 208.298C179.158 208.268 179.172 208.241 179.194 208.219L183.787 203.626C183.816 203.599 183.855 203.584 183.894 203.584C183.934 203.585 183.973 203.601 184.001 203.629C184.029 203.658 184.045 203.696 184.046 203.736C184.046 203.776 184.031 203.814 184.004 203.843L179.411 208.436C179.382 208.465 179.343 208.48 179.302 208.48Z" fill="black"/>
<path d="M180.435 211.638C180.396 211.638 180.36 211.623 180.331 211.597C180.317 211.584 180.305 211.567 180.296 211.549C180.288 211.531 180.283 211.511 180.282 211.491C180.281 211.471 180.285 211.451 180.292 211.432C180.299 211.413 180.309 211.396 180.323 211.381L182.448 209.085C182.475 209.056 182.514 209.038 182.554 209.037C182.594 209.035 182.634 209.05 182.663 209.077C182.693 209.105 182.71 209.143 182.712 209.183C182.713 209.224 182.699 209.263 182.671 209.293L180.547 211.589C180.533 211.604 180.515 211.617 180.496 211.625C180.477 211.634 180.456 211.638 180.435 211.639" fill="black"/>
<path d="M177.445 135.056C177.423 135.055 177.402 135.051 177.382 135.042C177.363 135.034 177.345 135.021 177.33 135.006C177.317 134.99 177.307 134.973 177.3 134.954C177.294 134.935 177.291 134.915 177.292 134.895C177.294 134.875 177.299 134.855 177.308 134.837C177.316 134.819 177.329 134.803 177.344 134.79L181.363 131.222C181.378 131.209 181.396 131.199 181.415 131.192C181.434 131.186 181.454 131.183 181.474 131.184C181.494 131.186 181.514 131.191 181.532 131.2C181.55 131.208 181.566 131.221 181.579 131.236C181.593 131.251 181.603 131.268 181.61 131.287C181.616 131.306 181.619 131.326 181.618 131.346C181.617 131.366 181.611 131.385 181.602 131.403C181.593 131.421 181.581 131.437 181.566 131.45L177.546 135.019C177.518 135.042 177.483 135.056 177.446 135.057" fill="black"/>
<path d="M178.654 137.823C178.613 137.823 178.574 137.808 178.545 137.779C178.516 137.751 178.5 137.712 178.5 137.671C178.5 137.63 178.516 137.591 178.545 137.562L184.451 131.658C184.48 131.63 184.519 131.614 184.559 131.614C184.6 131.614 184.639 131.63 184.668 131.658C184.695 131.688 184.711 131.726 184.711 131.767C184.711 131.807 184.695 131.846 184.668 131.875L178.762 137.781C178.733 137.809 178.694 137.825 178.654 137.825" fill="black"/>
<path d="M180.6 139.552C180.559 139.552 180.52 139.535 180.491 139.507C180.463 139.478 180.447 139.439 180.447 139.399C180.447 139.359 180.463 139.32 180.491 139.291L185.034 134.749C185.048 134.735 185.065 134.724 185.084 134.716C185.102 134.709 185.122 134.705 185.142 134.705C185.162 134.705 185.182 134.709 185.201 134.717C185.219 134.724 185.236 134.736 185.25 134.75C185.264 134.764 185.275 134.781 185.283 134.8C185.291 134.818 185.294 134.838 185.294 134.858C185.294 134.878 185.29 134.898 185.282 134.917C185.275 134.935 185.263 134.952 185.249 134.966L180.706 139.508C180.692 139.522 180.675 139.533 180.657 139.541C180.638 139.548 180.619 139.552 180.599 139.552" fill="black"/>
</g>
</g>
</svg>
