<svg width="931" height="127" viewBox="0 0 931 127" fill="#" xmlns="http://www.w3.org/2000/svg">
<path d="M50.9571 0L0 126.704H931V79.8787L902.078 64.7293L870.402 88.142L858.007 79.8787L835.972 75.747L815.314 60.5976L764.357 64.7293L742.321 37.1849L734.058 60.5976L713.399 45.4482L681.723 75.747L666.574 64.7293H634.898L619.749 84.0104L608.731 79.8787L593.581 88.142L556.396 49.5799L537.115 75.747L523.343 64.7293L498.553 84.0104L486.158 75.747H464.123L442.087 49.5799L421.429 64.7293L406.28 45.4482L378.735 75.747L363.586 49.5799L342.928 55.0888L325.024 49.5799L290.593 84.0104L282.33 75.747H271.312L258.917 37.1849L216.223 84.0104L201.074 60.5976L176.284 37.1849L143.231 27.5444V55.0888L128.081 75.747L108.8 88.142L67.4837 0H50.9571Z" fill="url(#paint0_linear_5_554)"/>
<defs>
<linearGradient id="paint0_linear_5_554" x1="589.443" y1="30.6938" x2="610.046" y2="185.323" gradientUnits="userSpaceOnUse">
<stop stop-color="#F5F5F5"/>
<stop offset="1" stop-color="#FEFDFF"/>
</linearGradient>
</defs>
</svg>
